<svg xmlns="http://www.w3.org/2000/svg" width="654" height="1367" fill="none"><g clip-path="url(#a)"><path fill="#FFFF70" d="M272.41 1317.48h-11.941v22.57h11.941v-22.57zm0 22.58H165.218v24.95H272.41v-24.95zm-54.666-220.81h-10.941v28.05h10.941v-28.05zm43.745 0h-10.941v28.05h10.941v-28.05zm21.872 0H272.42v28.05h10.941v-28.05z"/><path fill="#FFFF70" d="M294.292 1119.25h-10.941v28.05h10.941v-28.05zm-76.548 28.05h-10.941v28.04h10.941v-28.04zm21.872 0h-10.941v28.04h10.941v-28.04zm21.873 0h-10.941v28.04h10.941v-28.04zm21.872 0H272.42v28.04h10.941v-28.04zm-76.558 28.03h-10.942v28.04h10.942v-28.04z"/><path fill="#FFFF70" d="M228.675 1175.33h-10.941v28.04h10.941v-28.04zm32.814 0h-10.941v28.04h10.941v-28.04z"/><path fill="#FFFF70" d="M272.42 1175.33h-10.941v28.04h10.941v-28.04zm21.872 0h-10.941v28.04h10.941v-28.04zm-76.548 28.04h-10.941v28.05h10.941v-28.05zm21.872 0h-10.941v28.05h10.941v-28.05zm32.804 0h-10.941v28.05h10.941v-28.05zm21.872 0h-10.941v28.05h10.941v-28.05zm-76.548 28.05h-10.941v28.04h10.941v-28.04zm32.804 0h-10.942v28.04h10.942v-28.04z"/><path fill="#FFFF70" d="M261.489 1231.42h-10.941v28.04h10.941v-28.04zm21.872 0H272.42v28.04h10.941v-28.04zm-76.558 28.03h-10.942v28.04h10.942v-28.04zm32.813 0h-10.941v28.04h10.941v-28.04z"/><path fill="#FFFF70" d="M261.489 1259.45h-10.941v28.04h10.941v-28.04zm32.803 0h-10.941v28.04h10.941v-28.04zm-76.548 28.04h-10.941v28.04h10.941v-28.04zm32.804 0h-10.942v28.04h10.942v-28.04zM261.489 1287.49h-10.941v28.04h10.941v-28.04zm32.803 0h-10.941v28.04h10.941v-28.04z"/><path fill="#FFFF70" d="M272.42 1287.49h-10.941v28.04h10.941v-28.04zm-54.676 28.04h-10.941v22.24h10.941v-22.24zm21.872 0h-10.941v22.24h10.941v-22.24z"/><path stroke="#252AFF" stroke-miterlimit="10" stroke-width="4" d="M193.401 1340.06v-220.81h136.155V1365m-142.545-217.7h148.946m-148.946 28.36h148.946m-148.946 28.36h148.946m-148.946 28.38h148.946m-148.946 28.36h148.946m-148.946 28.36h148.946m-148.946 28.36h148.946m-176.58 22.58h101.092"/><path stroke="#252AFF" stroke-linecap="square" stroke-miterlimit="10" stroke-width="4" d="M260.469 1317.48v22.58"/><path stroke="#252AFF" stroke-miterlimit="10" stroke-width="4" d="M165.218 1340.06V1365h52.516v-24.94"/><path stroke="#252AFF" stroke-linecap="square" stroke-miterlimit="10" stroke-width="4" d="M206.803 1147.3v-46.91"/><path stroke="#252AFF" stroke-miterlimit="10" stroke-width="4" d="M296.593 1119.25V1365m-36.124-245.75v198.23m-31.794-198.23v198.23m84.399-198.23v198.23m-40.654 35.05h-21.872m46.055-252.14h-67.928v18.86h67.928v-18.86z"/><path stroke="#FFFF67" stroke-miterlimit="10" stroke-width="12" d="M169.019 332.036c90.032 0 163.017-72.985 163.017-163.017 0-90.033-72.985-163.018-163.017-163.018C78.986 6 6.001 78.986 6.001 169.019c0 90.032 72.985 163.017 163.018 163.017z"/><path stroke="#FFFF67" stroke-miterlimit="10" stroke-width="12" d="M169.019 262.209c51.467 0 93.19-41.723 93.19-93.19 0-51.468-41.723-93.19-93.19-93.19-51.468 0-93.19 41.722-93.19 93.19 0 51.467 41.722 93.19 93.19 93.19z"/><path stroke="#FFFF67" stroke-miterlimit="10" stroke-width="12" d="M169.019 207.513c21.259 0 38.494-17.235 38.494-38.494 0-21.26-17.235-38.495-38.494-38.495-21.26 0-38.495 17.235-38.495 38.495 0 21.259 17.235 38.494 38.495 38.494zm350.268 967.817c66.243 0 119.943-53.7 119.943-119.94 0-66.247-53.7-119.947-119.943-119.947s-119.943 53.7-119.943 119.947c0 66.24 53.7 119.94 119.943 119.94z"/><path stroke="#FFFF67" stroke-miterlimit="10" stroke-width="12" d="M519.287 1123.95c37.869 0 68.568-30.7 68.568-68.56 0-37.87-30.699-68.572-68.568-68.572s-68.567 30.702-68.567 68.572c0 37.86 30.698 68.56 68.567 68.56z"/><path stroke="#FFFF67" stroke-miterlimit="10" stroke-width="12" d="M519.287 1083.71c15.642 0 28.323-12.68 28.323-28.32 0-15.65-12.681-28.33-28.323-28.33-15.642 0-28.323 12.68-28.323 28.33 0 15.64 12.681 28.32 28.323 28.32z"/><path stroke="#252AFF" stroke-linecap="round" stroke-miterlimit="10" stroke-width="4" d="M651.662 493.104H115.003"/><path fill="#FFFF67" d="M416.586 325.266c30.943 24.492 23.932 71.928 23.932 71.928 4.751-8.281 13.692-13.872 23.933-13.872s19.172 5.581 23.933 13.872h.13c.01-39.725-32.204-71.928-71.928-71.928z"/><path fill="#FFFF67" d="M344.668 397.194h.13c4.75-8.281 13.691-13.872 23.932-13.872 10.242 0 19.173 5.581 23.933 13.872 0 0-7.011-47.436 23.933-71.928-39.735 0-71.928 32.203-71.928 71.928z"/><path stroke="#252AFF" stroke-linecap="round" stroke-miterlimit="10" stroke-width="4" d="M416.586 383.332v109.772m0-174.289v6.451m71.928 71.928c0-39.725-32.204-71.928-71.928-71.928-39.725 0-71.928 32.203-71.928 71.928"/><path stroke="#252AFF" stroke-linecap="round" stroke-miterlimit="10" stroke-width="4" d="M392.663 397.194c-4.75-8.291-13.691-13.872-23.933-13.872-10.241 0-19.172 5.581-23.932 13.872"/><path stroke="#252AFF" stroke-linecap="round" stroke-miterlimit="10" stroke-width="4" d="M440.518 397.194c-4.75-8.291-13.691-13.872-23.932-13.872-10.241 0-19.172 5.581-23.933 13.872m95.731 0c-4.751-8.291-13.692-13.872-23.933-13.872s-19.172 5.581-23.933 13.872m0 0s7.011-47.436-23.932-71.928m-23.923 71.928s-7.011-47.436 23.933-71.928"/><path stroke="#252AFF" stroke-linecap="round" stroke-linejoin="round" stroke-miterlimit="10" stroke-width="4" d="M185.21 306.384c-3.36-5.851-9.671-9.801-16.912-9.801-7.23 0-13.551 3.94-16.911 9.801-3.361-5.851-9.671-9.801-16.912-9.801-7.231 0-13.552 3.94-16.912 9.801m18.742 38.644c-3.36-5.851-9.671-9.801-16.912-9.801-7.231 0-13.551 3.94-16.912 9.801-3.36-5.851-9.67-9.801-16.912-9.801-7.23 0-13.551 3.94-16.912 9.801m15.203-62.327c-3.361-5.851-9.672-9.801-16.913-9.801-7.23 0-13.551 3.94-16.912 9.801-3.36-5.851-9.67-9.801-16.911-9.801-7.231 0-13.552 3.94-16.912 9.801"/><path fill="#FFFF67" stroke="#252AFF" stroke-linecap="round" stroke-linejoin="round" stroke-miterlimit="10" stroke-width="4" d="M219.684 868.515h87.14c5.52 0 10.001-4.48 10.001-10.001v-68.567c0-5.521-4.481-10.001-10.001-10.001h-87.14c-5.52 0-10.001 4.48-10.001 10.001v68.567c0 5.521 4.481 10.001 10.001 10.001z"/><path stroke="#252AFF" stroke-linecap="round" stroke-linejoin="round" stroke-miterlimit="10" stroke-width="4" d="M308.354 779.946v-17.752c0-24.903-20.192-45.095-45.095-45.095s-45.095 20.192-45.095 45.095v17.752"/><path fill="#fff" stroke="#252AFF" stroke-linecap="round" stroke-linejoin="round" stroke-miterlimit="10" stroke-width="4" d="M263.259 812.419a7.661 7.661 0 1 0 0-15.322 7.661 7.661 0 0 0 0 15.322z"/><path stroke="#252AFF" stroke-linecap="round" stroke-linejoin="round" stroke-miterlimit="10" stroke-width="4" d="M263.259 812.419v8.681m30.913-41.154v-17.752c0-17.052-13.871-30.924-30.923-30.924s-30.924 13.872-30.924 30.924v17.752m53.456-311.945h93.021"/><path stroke="#252AFF" stroke-linecap="round" stroke-miterlimit="10" stroke-width="4" d="M285.781 468.001l-9.331 25.103m74.058-25.103l9.321 25.103"/><path stroke="#252AFF" stroke-linecap="round" stroke-linejoin="round" stroke-miterlimit="10" stroke-width="4" d="M285.781 463.361v-1.43c0-.81-.4-1.57-1.08-2.031l-32.113-21.802a2.465 2.465 0 0 0-3.201.38l-.8.88c-1 1.1-.8 2.841.44 3.681l32.914 22.352c1.63 1.11 3.84-.06 3.84-2.03z"/><path stroke="#252AFF" stroke-linecap="round" stroke-linejoin="round" stroke-miterlimit="10" stroke-width="4" d="M288.232 468.001h39.564c1.36 0 2.45-1.1 2.45-2.45v-2.45c0-1.36-1.1-2.45-2.45-2.45h-39.564a2.448 2.448 0 0 0-2.451 2.45v2.45c0 1.35 1.1 2.45 2.451 2.45zm44.475 0h39.564c1.36 0 2.45-1.1 2.45-2.45v-2.45c0-1.36-1.1-2.45-2.45-2.45h-39.564a2.448 2.448 0 0 0-2.451 2.45v2.45a2.441 2.441 0 0 0 2.451 2.45zm-89.4-28.833l42.474 28.833m-6.52 386.893l-13.002-13.002h233.036c11.051 0 20.002 8.951 20.002 20.003V1345c0 11.05-8.951 20-20.002 20H7.221m107.782-871.896h-87.78c-11.051 0-20.002 8.951-20.002 20.002V821.89c0 11.051 8.95 20.002 20.002 20.002h231.035l-13.001-13.001"/><path stroke="#252AFF" stroke-linecap="round" stroke-linejoin="round" stroke-miterlimit="10" stroke-width="4" d="M219.684 914.3h87.14c5.52 0 10.001-4.48 10.001-10.001v-14.841c0-5.521-4.481-10.001-10.001-10.001h-87.14c-5.52 0-10.001 4.48-10.001 10.001v14.841c0 5.521 4.481 10.001 10.001 10.001zm43.575-25.082v15.321m-6.641-11.491l13.272 7.661m-13.272 0l13.272-7.661m22.722-3.83v15.321m-6.631-11.491l13.272 7.661m-13.272 0l13.272-7.661m-65.357-3.83v15.321m-6.631-11.491l13.271 7.661m-13.271 0l13.271-7.661"/><path fill="#FFFF67" stroke="#252AFF" stroke-linecap="round" stroke-linejoin="round" stroke-miterlimit="10" stroke-width="4" d="M82.98 1329.88c22.098 0 40.014-17.92 40.014-40.02s-17.916-40.01-40.015-40.01c-22.1 0-40.014 17.91-40.014 40.01 0 22.1 17.915 40.02 40.014 40.02z"/><path stroke="#252AFF" stroke-linecap="round" stroke-linejoin="round" stroke-miterlimit="10" stroke-width="4" d="M82.98 1365v-70.23m14.58 8.41l-14.58 14.58-14.583-14.58"/><path fill="#FFFF67" d="M356.559 1289.01v14.87a14.67 14.67 0 0 0 5.951 5.71c2.01 1.04 4.31 1.64 6.731 1.64a14.62 14.62 0 0 0 12.691-7.35v-14.87h-25.373zm13.222-23.05l-13.222 23.05h25.383l8.171-23.05h-20.332zm7.41 58.9v23.23c0 1.16.94 2.1 2.101 2.1h37.504a2.1 2.1 0 0 0 2.1-2.1v-23.23a2.1 2.1 0 0 0-2.1-2.1h-37.504a2.1 2.1 0 0 0-2.101 2.1zm30.124-35.85v14.87c1.26 2.2 3.07 4.04 5.25 5.32a14.55 14.55 0 0 0 7.431 2.03c5.431 0 10.171-2.96 12.692-7.35v-14.87h-25.373zm4.5-23.05l-4.5 23.05h25.362l-4.5-23.05h-16.362zm23.533 58.9V1365h25.513v-40.14a2.1 2.1 0 0 0-2.101-2.1h-21.312a2.1 2.1 0 0 0-2.1 2.1zm14.531-58.9l8.181 23.05h25.373l-13.221-23.05h-20.333z"/><path fill="#FFFF67" d="M458.06 1289.01v14.87c1.26 2.2 3.081 4.04 5.251 5.32 2.18 1.29 4.72 2.03 7.441 2.03 2.43 0 4.72-.59 6.73-1.64a14.603 14.603 0 0 0 5.951-5.71v-14.87H458.06z"/><path stroke="#252AFF" stroke-linecap="round" stroke-miterlimit="10" stroke-width="4" d="M369.781 1265.96l-13.222 23.05v14.87a14.67 14.67 0 0 0 5.951 5.71c2.01 1.04 4.31 1.64 6.731 1.64a14.62 14.62 0 0 0 12.691-7.35c1.26 2.2 3.07 4.04 5.251 5.32 2.18 1.29 4.72 2.03 7.44 2.03 5.421 0 10.171-2.96 12.692-7.35 1.26 2.2 3.07 4.04 5.25 5.32a14.55 14.55 0 0 0 7.431 2.03c5.431 0 10.171-2.96 12.692-7.35 1.26 2.2 3.08 4.04 5.25 5.32a14.556 14.556 0 0 0 7.441 2.03 14.62 14.62 0 0 0 12.691-7.35c1.26 2.2 3.081 4.04 5.251 5.32 2.18 1.29 4.72 2.03 7.441 2.03 2.43 0 4.72-.59 6.73-1.64a14.603 14.603 0 0 0 5.951-5.71v-14.87l-13.221-23.05"/><path stroke="#252AFF" stroke-linecap="round" stroke-miterlimit="10" stroke-width="4" d="M449.879 1265.96l8.181 23.05v14.86m-29.883-37.91l4.5 23.05v14.86m-42.564-37.91l-8.171 23.05v14.86m29.873-37.91l-4.5 23.05v14.86m76.118-14.86H356.559m120.913 20.57V1365H362.52v-55.42"/><path stroke="#252AFF" stroke-linecap="round" stroke-miterlimit="10" stroke-width="4" d="M435.348 1365v-40.14c0-1.16.94-2.1 2.1-2.1h21.312a2.1 2.1 0 0 1 2.101 2.1V1365m-41.965-16.91v-23.23a2.1 2.1 0 0 0-2.1-2.1h-37.504a2.1 2.1 0 0 0-2.101 2.1v23.23c0 1.16.94 2.1 2.101 2.1h37.504a2.1 2.1 0 0 0 2.1-2.1zm-49.115-82.13v-7.92c0-2.9 2.35-5.25 5.25-5.25h18.222c5.151-9.48 15.202-15.93 26.743-15.93 11.551 0 21.602 6.44 26.743 15.93h18.222a5.25 5.25 0 0 1 5.251 5.25v7.92H369.781z"/></g><defs><clipPath id="a"><path fill="#fff" d="M0 0h653.59v1366.85H0z" transform="scale(1.00011)"/></clipPath></defs></svg>