<svg width="1048" height="309" fill="none" xmlns="http://www.w3.org/2000/svg"><g clip-path="url(#clip0)" fill="#C2DDFA"><path d="M295.021 51.795h-2.192V38.209h6.578c2.631 0 4.385-2.191 4.385-4.383v-9.641h5.262l-5.262-13.147c0-10.08-8.332-18.407-18.418-18.407-10.086 0-18.417 8.327-18.417 18.407 0 5.259 1.754 10.08 3.946 14.9 1.754 4.383 3.508 8.765 3.508 13.586v12.27h-2.192v-12.27c0-4.383-1.754-8.327-3.508-12.71-2.193-4.82-3.947-9.641-3.947-15.338 0-11.395 9.209-20.598 20.61-20.598s20.61 9.203 20.61 20.598l6.139 15.338h-6.139v7.45c0 3.507-3.069 6.575-6.577 6.575h-4.386v10.956z"/><path d="M298.529 13.229h-9.647v-4.82h2.193v2.628h5.262V8.409h2.192v4.82zm138.57 174.423h-5.262v2.191h5.262v-2.191z"/><path d="M316.07 51.795V39.524c0-4.821 1.754-8.765 3.508-13.586 1.754-4.382 3.947-9.203 3.947-14.9 0-10.08-10.086-19.722-20.61-19.722-10.525 0-20.61 9.642-20.61 19.722v.438l-4.824 12.71h5.262v9.64c0 2.63 2.193 4.383 4.385 4.383h7.893v13.586h-2.192V40.4h-5.701c-3.508 0-6.577-3.067-6.577-6.573v-7.45h-6.14l6.14-15.34c0-10.956 10.962-21.474 22.802-21.474 11.401 0 22.803 10.518 22.803 21.913 0 5.697-2.193 10.956-3.947 15.338-1.754 4.383-3.508 8.327-3.508 12.71v12.27h-2.631zm488.502-.439h-2.192V37.771h6.577c2.632 0 4.386-2.192 4.386-4.383v-9.641h5.262l-5.262-13.148c0-10.08-8.332-18.406-18.418-18.406-10.086 0-18.417 8.326-18.417 18.406 0 5.26 1.754 10.08 3.946 14.9 1.754 4.383 3.508 8.766 3.508 13.586v12.271h-2.192v-12.27c0-4.383-1.754-8.327-3.508-12.71-2.193-4.82-3.947-9.641-3.947-15.339 0-11.394 9.209-20.597 20.61-20.597s20.61 9.203 20.61 20.597l6.139 15.34h-6.139v7.45c0 3.505-3.069 6.573-6.578 6.573h-4.385v10.956z"/><path d="M802.38 12.79h-9.647V7.97h2.192v2.63h5.262V7.97h2.193v4.82z"/><path d="M825.182 51.356v-12.27c0-4.821 1.754-8.765 3.508-13.586 1.755-4.383 3.947-9.203 3.947-14.9 0-10.08-10.086-19.722-20.61-19.722s-20.61 9.642-20.61 19.721v.438l-4.824 12.71h5.262v9.641c0 2.63 2.193 4.383 4.386 4.383h7.893v13.585h-2.193V39.962h-5.7c-3.509 0-6.578-3.068-6.578-6.574v-7.45h-6.139l6.139-15.339c0-10.956 10.963-21.474 22.803-21.474 11.401 0 22.802 10.518 22.802 21.913 0 5.697-2.192 10.956-3.946 15.338-1.754 4.383-3.508 8.327-3.508 12.71v12.27h-2.632zM141.981-109.043h-4.824v2.192h4.824v-2.192z"/><path d="M157.767-98.525v-8.765c0-4.82 1.754-8.765 3.508-13.585 1.754-4.383 3.947-9.204 3.947-14.901 0-10.08-8.332-18.406-18.418-18.406-10.085 0-18.417 8.326-18.417 18.406v.438l-4.824 12.71h5.262v9.641c0 2.63 2.193 4.383 4.386 4.383h6.577v9.641h-2.192v-7.45h-4.385c-3.509 0-6.578-3.068-6.578-6.574v-7.45h-6.139l6.139-15.339c0-11.394 9.209-20.598 20.61-20.598s20.61 9.204 20.61 20.598c0 5.697-2.193 10.956-3.947 15.339-1.754 4.382-3.508 8.327-3.508 12.709v9.203h-2.631z"/><path d="M146.804-119.122c-8.77 0-16.225-7.012-16.225-16.216 0-9.203 7.017-16.215 16.225-16.215 9.209 0 16.225 7.012 16.225 16.215 0 9.204-7.454 16.216-16.225 16.216zm0-30.24c-7.454 0-14.032 6.136-14.032 14.024 0 7.889 6.139 14.024 14.032 14.024 7.894 0 14.033-6.135 14.033-14.024 0-7.888-6.139-14.024-14.033-14.024z"/><path d="M148.12-119.122h-.877c-4.824 0-8.77-3.945-8.77-8.765 0-3.068 1.315-7.012 8.331-8.765 4.385-.877 6.578-3.068 6.578-6.574s-3.07-6.574-6.578-6.574h-.877v-1.753h.877c4.824 0 8.771 3.944 8.771 8.765 0 3.068-1.316 7.012-8.332 8.765-4.385.877-6.578 3.068-6.578 6.574s3.07 6.574 6.578 6.574h.877v1.753z"/><path d="M148.997-144.103h-3.947v2.192h3.947v-2.192zm0 14.901h-3.947v2.191h3.947v-2.191z"/><path d="M146.804-119.122c-4.823 0-8.77-3.945-8.77-8.765 0-3.068 1.316-7.012 8.332-8.765 4.385-.877 6.578-3.068 6.578-6.574s-3.07-6.574-6.578-6.574v-1.753c8.77 0 16.225 7.012 16.225 16.215.438 8.765-7.016 16.216-15.787 16.216zm7.455-28.048c.877 1.314 1.316 2.629 1.316 4.382 0 3.068-1.316 7.012-8.332 8.765-4.385.877-6.578 3.068-6.578 6.574s3.07 6.574 6.578 6.574c7.455 0 14.032-6.136 14.032-14.024-.438-5.259-3.069-9.642-7.016-12.271zM434.03 201.238h-2.193v-11.395h-4.385c-3.508 0-6.578-3.068-6.578-6.574v-7.45h-6.139l6.139-15.339c0-11.394 9.209-20.597 20.61-20.597 5.701 0 10.963 2.191 14.471 6.135l.877.877-1.754 1.753-.877-.877c-3.508-3.506-7.893-5.259-13.155-5.259-10.086 0-18.418 8.327-18.418 18.407v.438l-4.823 12.709h5.262v9.642c0 2.629 2.193 4.382 4.385 4.382h6.578v13.148zm18.417 0v-12.271c0-4.383 1.316-7.889 3.07-11.833l.438-.877 2.193.877-.439.876c-1.315 3.506-2.631 7.012-2.631 10.957v12.271h-2.631z"/><path d="M438.415 159.166h-11.84l7.893-8.327 13.594 4.382-.438 2.192-12.717-3.945-3.07 3.506h6.578v2.192z"/><path d="M467.357 187.214l-12.717-15.339-15.348-7.45-6.139-12.71 2.192-.876 5.701 11.833 14.909 7.45 6.14 7.45-4.386-14.462 12.717-9.642h-6.139v-2.191h12.717l-16.663 12.71 7.016 23.227z"/><path d="M459.463 164.425h-21.925l12.278-13.148 22.364-8.765-12.717 21.913zm-16.663-2.192h15.348l9.209-15.338-16.225 6.135-8.332 9.203z"/><path d="M467.357 187.214l-12.717-15.339-14.91-7.45-2.631-5.259h-10.524l7.893-7.889 12.279 3.944 3.508-3.506h27.188l-17.102 12.71 7.016 22.789zm-26.311-24.542l14.909 7.45 5.701 7.012-4.385-14.462 12.717-9.642h-19.733l-3.947 3.944-12.278-3.944-3.07 3.068h6.578l3.508 6.574z"/><path d="M459.463 164.425h-21.925l12.278-13.148 22.364-8.765-12.717 21.913zm-16.663-2.192h15.348l9.209-15.338-16.225 6.135-8.332 9.203zm234.604-78.446h-2.193V72.392h-4.385c-3.508 0-6.577-3.067-6.577-6.573v-7.45h-6.14l6.14-15.34c0-11.394 9.208-20.597 20.61-20.597 5.7 0 10.962 2.191 14.47 6.136l.877.876-1.754 1.753-.877-.876c-3.508-3.506-7.893-5.26-13.155-5.26-10.086 0-18.417 8.327-18.417 18.407v.438l-4.824 12.71h5.262v9.641c0 2.63 2.193 4.382 4.385 4.382h6.578v13.148zm18.417 0V71.516c0-4.383 1.316-7.889 3.07-11.833l.438-.876 2.193.876-.439.877c-1.315 3.506-2.631 7.012-2.631 10.956v12.27h-2.631z"/><path d="M682.228 41.715h-12.279l7.893-8.327 14.033 4.383-.877 2.191-12.279-3.944-3.508 3.506h7.017v2.191z"/><path d="M710.731 69.763l-12.717-15.339-14.909-7.45-6.14-12.71 1.754-.876 6.14 11.833 14.909 7.45 5.701 7.45-4.386-14.462 13.156-9.641H708.1v-2.191h12.716l-17.101 12.709 7.016 23.227z"/><path d="M703.276 46.974H681.35l12.279-13.147 22.364-8.765-12.717 21.912zm-17.102-2.191h15.348l9.209-15.339-16.225 6.136-8.332 9.203z"/><path d="M710.731 69.763l-12.717-15.339-14.909-7.45-2.631-5.259h-10.525l7.893-7.888 12.279 3.944 3.508-3.506h27.188l-17.102 12.71 7.016 22.788zm-25.872-24.542l14.909 7.45 5.701 7.012-4.385-14.462L713.8 35.58h-19.733l-3.946 3.944-12.279-3.944-3.069 3.067h6.578l3.508 6.574z"/><path d="M703.276 46.974H681.35l12.279-13.147 22.364-8.765-12.717 21.912zm-17.102-2.191h15.348l9.209-15.339-16.225 6.136-8.332 9.203zM142.419 5.34h-2.192v29.363h2.192V5.34zm5.262 0h-2.192v29.363h2.192V5.34z"/><path d="M152.944 5.34h-17.102v2.192h17.102V5.34zm-4.386 14.9h-7.893v2.192h7.893v-2.191zm-3.069-4.382h-2.193v3.945h2.193v-3.945zm0-3.944h-2.193v3.944h2.193v-3.944z"/><path d="M145.489 8.408h-2.193v3.944h2.193V8.408z"/><path d="M154.259 34.703h-2.192v-.877c0-4.382 2.192-7.45 4.385-10.518 2.192-3.067 4.385-5.697 4.385-10.08V4.027c0-6.136-4.824-10.957-10.963-10.957h-9.209c-6.139 0-10.963 4.821-10.963 10.957v9.203c0 4.382 2.193 7.45 4.386 10.08 2.192 3.067 4.385 5.697 4.385 10.518v.876h-2.193v-.877c0-3.944-1.754-6.135-3.947-9.203-2.192-3.068-4.823-6.574-4.823-11.394V4.026c0-7.45 6.139-13.148 13.155-13.148h9.209c7.455 0 13.155 6.136 13.155 13.148v9.203c0 5.259-2.631 8.326-4.823 11.394-2.193 2.63-3.947 5.26-3.947 9.204v.876z"/><path d="M136.28 32.512h-2.192v14.462h2.192V32.512zm17.979 0h-2.193v14.462h2.193V32.512z"/><path d="M157.329 32.95h-24.996v2.191h24.996V32.95zm0 3.944h-24.996v2.192h24.996v-2.192zm0 3.068h-24.996v2.191h24.996v-2.191zm0 4.382h-24.996v2.192h24.996v-2.192z"/><path d="M148.558 50.918h-7.893v-6.135h2.193v3.944h3.508v-3.944h2.192v6.135z"/><path d="M154.259 46.974h-19.294V33.388h19.294v13.586zm-17.102-2.191h14.91V35.58h-14.91v9.203z"/><path d="M154.259 34.703h-2.192v-.877c0-4.382 2.192-7.45 4.385-10.518 2.192-3.067 4.385-5.697 4.385-10.08V4.027c0-6.136-4.824-10.957-10.963-10.957h-9.209c-6.139 0-10.963 4.821-10.963 10.957v9.203c0 4.382 2.193 7.45 4.386 10.08 2.192 3.067 4.385 5.697 4.385 10.518v.876h-2.193v-.877c0-3.944-1.754-6.135-3.947-9.203-2.192-3.068-4.823-6.574-4.823-11.394V4.026c0-7.45 6.139-13.148 13.155-13.148h9.209c7.455 0 13.155 6.136 13.155 13.148v9.203c0 5.259-2.631 8.326-4.823 11.394-2.193 2.63-3.947 5.26-3.947 9.204v.876z"/><path d="M144.612 23.747c-7.455 0-13.155-6.136-13.155-13.148 0-7.45 6.139-13.147 13.155-13.147 7.016 0 13.155 6.135 13.155 13.147 0 7.012-5.7 13.148-13.155 13.148zm0-24.542c-6.139 0-10.963 4.82-10.963 10.956 0 6.136 4.824 10.956 10.963 10.956 6.139 0 10.963-4.82 10.963-10.956 0-5.697-4.824-10.956-10.963-10.956zm658.206 151.196h-2.192v29.362h2.192v-29.362zm5.263 0h-2.193v29.362h2.193v-29.362z"/><path d="M812.466 150.401h-16.225v2.191h16.225v-2.191z"/><path d="M814.22 179.763h-2.193v-.876c0-4.383 2.193-7.45 4.385-10.518 2.193-3.068 4.385-5.697 4.385-10.08v-9.203c0-6.136-4.823-10.956-10.962-10.956h-9.209c-6.139 0-10.963 4.82-10.963 10.956v9.203c0 4.383 2.193 7.45 4.385 10.08 2.193 3.068 4.385 5.697 4.385 10.518v.876h-2.192v-.876c0-3.944-1.754-6.136-3.947-9.203-2.192-3.068-4.824-6.574-4.824-11.395v-9.203c0-7.45 6.14-13.148 13.156-13.148h9.209c7.454 0 13.155 6.136 13.155 13.148v9.203c0 5.259-2.631 8.327-4.824 11.395-2.192 2.629-3.946 5.259-3.946 9.203v.876z"/><path d="M796.241 177.572h-2.193v14.462h2.193v-14.462zm17.979 0h-2.193v14.462h2.193v-14.462z"/><path d="M817.289 177.572h-24.995v2.191h24.995v-2.191zm0 4.383h-24.995v2.191h24.995v-2.191zm0 3.067h-24.995v2.192h24.995v-2.192zm0 3.945h-24.995v2.191h24.995v-2.191z"/><path d="M808.519 195.54h-7.893v-5.697h2.192v3.506h3.508v-3.506h2.193v5.697z"/><path d="M814.22 192.034h-19.295v-13.585h19.295v13.585zm-17.102-2.191h14.909v-9.203h-14.909v9.203z"/><path d="M814.22 179.763h-2.193v-.876c0-4.383 2.193-7.45 4.385-10.518 2.193-3.068 4.385-5.697 4.385-10.08v-9.203c0-6.136-4.823-10.956-10.962-10.956h-9.209c-6.139 0-10.963 4.82-10.963 10.956v9.203c0 4.383 2.193 7.45 4.385 10.08 2.193 3.068 4.385 5.697 4.385 10.518v.876h-2.192v-.876c0-3.944-1.754-6.136-3.947-9.203-2.192-3.068-4.824-6.574-4.824-11.395v-9.203c0-7.45 6.14-13.148 13.156-13.148h9.209c7.454 0 13.155 6.136 13.155 13.148v9.203c0 5.259-2.631 8.327-4.824 11.395-2.192 2.629-3.946 5.259-3.946 9.203v.876z"/><path d="M804.573 168.369c-7.455 0-13.156-6.136-13.156-13.148 0-7.45 6.139-13.147 13.156-13.147 7.016 0 13.155 6.136 13.155 13.147 0 7.451-5.701 13.148-13.155 13.148zm0-24.104c-6.14 0-10.963 4.821-10.963 10.956 0 6.136 4.823 10.957 10.963 10.957 6.139 0 10.962-4.821 10.962-10.957 0-6.135-4.823-10.956-10.962-10.956zm-40.782-410.201h-2.193v29.363h2.193v-29.363zm5.262 0h-2.193v29.363h2.193v-29.363z"/><path d="M773.438-265.936h-16.225v2.191h16.225v-2.191z"/><path d="M775.192-236.573h-2.193v-.877c0-4.382 2.193-7.45 4.386-10.518 2.192-3.067 4.385-5.697 4.385-10.079v-9.204c0-6.135-4.824-10.956-10.963-10.956h-9.209c-6.139 0-10.963 4.821-10.963 10.956v9.204c0 4.382 2.193 7.45 4.386 10.079 2.192 3.068 4.385 5.697 4.385 10.518v.877h-2.193v-.877c0-3.944-1.754-6.135-3.947-9.203-2.192-3.068-4.823-6.574-4.823-11.394v-9.204c0-7.45 6.139-13.147 13.155-13.147h9.209c7.455 0 13.155 6.135 13.155 13.147v9.204c0 5.259-2.631 8.326-4.823 11.394-2.193 2.629-3.947 5.259-3.947 9.203v.877z"/><path d="M757.213-238.765h-2.192v14.463h2.192v-14.463zm17.979 0h-2.193v14.463h2.193v-14.463z"/><path d="M778.262-238.765h-24.996v2.192h24.996v-2.192zm0 4.383h-24.996v2.191h24.996v-2.191zm0 3.068h-24.996v2.191h24.996v-2.191zm0 4.382h-24.996v2.191h24.996v-2.191z"/><path d="M769.491-220.358h-7.893v-6.136h2.193v3.945h3.508v-3.945h2.192v6.136z"/><path d="M775.192-224.302h-19.294v-13.586h19.294v13.586zm-17.102-2.192H773v-9.203h-14.91v9.203z"/><path d="M775.192-236.573h-2.193v-.877c0-4.382 2.193-7.45 4.386-10.518 2.192-3.067 4.385-5.697 4.385-10.079v-9.204c0-6.135-4.824-10.956-10.963-10.956h-9.209c-6.139 0-10.963 4.821-10.963 10.956v9.204c0 4.382 2.193 7.45 4.386 10.079 2.192 3.068 4.385 5.697 4.385 10.518v.877h-2.193v-.877c0-3.944-1.754-6.135-3.947-9.203-2.192-3.068-4.823-6.574-4.823-11.394v-9.204c0-7.45 6.139-13.147 13.155-13.147h9.209c7.455 0 13.155 6.135 13.155 13.147v9.204c0 5.259-2.631 8.326-4.823 11.394-2.193 2.629-3.947 5.259-3.947 9.203v.877z"/><path d="M765.545-247.53c-7.455 0-13.156-6.135-13.156-13.147 0-7.45 6.14-13.147 13.156-13.147 7.016 0 13.155 6.135 13.155 13.147 0 7.012-5.7 13.147-13.155 13.147zm0-24.541c-6.139 0-10.963 4.82-10.963 10.956 0 6.135 4.824 10.956 10.963 10.956 6.139 0 10.963-4.821 10.963-10.956 0-6.136-4.824-10.956-10.963-10.956zM102.076 214.823h-4.823v2.192h4.823v-2.192z"/><path d="M81.905 224.903h-2.193v-8.765c0-4.382-1.754-8.327-3.508-12.709-2.193-4.821-3.947-9.642-3.947-15.339 0-11.394 9.21-20.598 20.61-20.598 11.402 0 20.611 9.204 20.611 20.598l6.139 15.339h-6.139v7.45c0 3.506-3.07 6.574-6.578 6.574h-4.385v7.45h-2.193v-9.641h6.578c2.631 0 4.385-2.192 4.385-4.383v-9.641h5.262l-5.262-13.148c0-10.08-8.332-18.406-18.417-18.406-10.086 0-18.418 8.326-18.418 18.406 0 5.259 1.754 10.08 3.947 14.901 1.754 4.382 3.508 8.765 3.508 13.585v8.327z"/><path d="M94.183 195.54H91.99v10.956h2.193V195.54z"/><path d="M92.868 196.855c-9.648 0-12.279-10.08-12.279-15.339v-1.314h1.316c.438 0 8.332.876 10.963 4.82 3.07-4.382 10.962-4.82 10.962-4.82h1.316v1.314c0 5.698-2.631 15.339-12.278 15.339zm-10.086-13.586c.438 3.068 1.754 11.833 10.086 11.833 8.331 0 9.647-8.327 10.085-11.833-2.631.439-8.77 1.753-8.77 6.136H91.99c0-4.383-6.577-5.697-9.208-6.136z"/><path d="M92.867 198.17l-.877-1.315c0-.438-3.946-6.135-3.946-10.08 0-4.82 3.946-10.518 3.946-10.956l.877-1.315.877 1.315c0 .438 3.947 6.136 3.947 10.956 0 3.945-3.947 9.642-3.947 10.08l-.877 1.315zm0-19.721c-.877 1.753-2.63 5.259-2.63 8.326 0 2.192 1.315 5.259 2.63 7.451 1.316-2.192 2.632-5.259 2.632-7.451 0-3.067-1.316-6.573-2.632-8.326zm347.302-288.806h-21.487l9.647-23.666h22.803v2.191h-21.487l-7.455 19.283h16.663l13.156-17.53 1.754 1.315-13.594 18.407z"/><path d="M425.202-142.729l-1.967.969 15.703 31.841 1.967-.968-15.703-31.842zm35.577 45.519c-7.455 0-13.594-6.135-13.594-14.024 0-7.888 6.139-14.024 13.594-14.024 7.455 0 13.594 6.136 13.594 14.024 0 7.45-6.139 14.024-13.594 14.024zm0-25.857c-6.578 0-11.401 5.259-11.401 11.833s5.262 11.833 11.401 11.833 11.401-5.259 11.401-11.833-5.262-11.833-11.401-11.833zM420.436-97.21c-7.455 0-13.594-6.135-13.594-14.024 0-7.888 6.139-14.024 13.594-14.024 7.455 0 13.594 6.136 13.594 14.024 0 7.45-6.139 14.024-13.594 14.024zm0-25.857c-6.578 0-11.401 5.259-11.401 11.833s5.262 11.833 11.401 11.833 11.401-5.259 11.401-11.833-4.823-11.833-11.401-11.833z"/><path d="M432.276-142.35h-11.84v2.192h11.84v-2.192zm28.065 32.431l-16.225-32.431h12.278v2.192h-8.77l14.471 29.362-1.754.877z"/><path d="M455.517-131.832h-1.316v-2.191h.877c1.754 0 3.07-1.315 3.07-3.068 0-1.753-1.316-3.067-3.07-3.067h-.877v-2.192h.877c3.07 0 5.262 2.63 5.262 5.259.439 3.068-2.192 5.259-4.823 5.259zm5.262 31.116c-5.701 0-10.524-4.821-10.524-10.956 0-6.136 4.823-10.957 10.524-10.957 5.701 0 10.524 4.821 10.524 10.957 0 6.135-4.823 10.956-10.524 10.956zm0-19.283c-4.824 0-8.332 3.944-8.332 8.765 0 4.821 3.947 8.765 8.332 8.765 4.385 0 8.332-3.944 8.332-8.765 0-4.821-3.947-8.765-8.332-8.765zm-40.343 19.283c-5.701 0-10.524-4.821-10.524-10.956 0-6.136 4.823-10.957 10.524-10.957 5.701 0 10.524 4.821 10.524 10.957 0 6.135-4.823 10.956-10.524 10.956zm0-19.283c-4.824 0-8.332 3.944-8.332 8.765 0 4.821 3.947 8.765 8.332 8.765 4.385 0 8.332-3.944 8.332-8.765 0-4.821-3.508-8.765-8.332-8.765zM696.26-42.867h-21.049l9.209-23.666h23.241v2.192h-21.487l-7.893 19.283h17.102l13.155-17.53 1.754 1.314-14.032 18.407z"/><path d="M681.604-75.717l-1.966.968 15.703 31.842 1.967-.968-15.704-31.842zm35.266 45.559c-7.455 0-13.594-6.135-13.594-14.024 0-7.888 6.139-14.024 13.594-14.024 7.455 0 13.594 6.136 13.594 14.024.439 7.889-5.701 14.024-13.594 14.024zm0-25.418c-6.578 0-11.401 5.259-11.401 11.832 0 6.574 5.262 11.833 11.401 11.833s11.401-5.259 11.401-11.833c.439-6.573-4.823-11.832-11.401-11.832zm-39.904 25.418c-7.455 0-13.594-6.135-13.594-14.024 0-7.888 6.139-14.024 13.594-14.024 7.454 0 13.593 6.136 13.593 14.024 0 7.889-6.139 14.024-13.593 14.024zm0-25.418c-6.578 0-11.402 5.259-11.402 11.832 0 6.574 5.262 11.833 11.402 11.833 6.139 0 11.401-5.259 11.401-11.833 0-6.573-5.262-11.832-11.401-11.832z"/><path d="M688.805-75.298h-11.839v2.192h11.839v-2.192zm27.626 32.869l-15.786-32.869h12.278v2.192h-8.77l14.471 29.8-2.193.877z"/><path d="M711.608-64.341h-.877v-2.192h.877c1.754 0 3.069-1.314 3.069-3.067 0-1.753-1.315-3.068-3.069-3.068h-.877v-2.191h.877c3.069 0 5.262 2.63 5.262 5.259 0 2.63-2.193 5.259-5.262 5.259zm5.262 31.115c-5.701 0-10.524-4.82-10.524-10.956 0-6.135 4.823-10.956 10.524-10.956 5.701 0 10.524 4.82 10.524 10.956 0 6.136-4.385 10.956-10.524 10.956zm0-19.283c-4.824 0-8.332 3.945-8.332 8.765 0 4.821 3.947 8.765 8.332 8.765 4.385 0 8.332-3.944 8.332-8.765 0-4.82-3.508-8.765-8.332-8.765zm-39.904 19.283c-5.701 0-10.525-4.82-10.525-10.956 0-6.135 4.824-10.956 10.525-10.956 5.7 0 10.524 4.82 10.524 10.956 0 6.136-4.824 10.956-10.524 10.956zm0-19.283c-4.824 0-8.332 3.945-8.332 8.765 0 4.821 3.946 8.765 8.332 8.765 4.385 0 8.331-3.944 8.331-8.765 0-4.82-3.946-8.765-8.331-8.765zm288.54 151.635H946.65l8.332-21.475h20.61v2.192h-19.294l-6.578 17.091h14.909l11.402-15.777 1.754 1.315-12.279 16.654z"/><path d="M952.339 70.112l-1.967.969 13.958 28.303 1.967-.968-13.958-28.304zm31.146 40.408c-6.577 0-12.278-5.697-12.278-12.27 0-7.013 5.701-12.272 12.278-12.272 6.578 0 12.279 5.697 12.279 12.271 0 6.574-5.262 12.271-12.279 12.271zm0-22.789c-5.7 0-10.085 4.82-10.085 10.08 0 5.259 4.385 10.08 10.085 10.08 5.701 0 10.086-4.383 10.086-10.08s-4.385-10.08-10.086-10.08zm-35.081 22.789c-6.577 0-12.278-5.697-12.278-12.27 0-7.013 5.701-12.272 12.278-12.272 6.578 0 12.279 5.697 12.279 12.271 0 6.574-5.701 12.271-12.279 12.271zm0-22.789c-5.7 0-10.085 4.82-10.085 10.08 0 5.259 4.385 10.08 10.085 10.08 5.701 0 10.086-4.383 10.086-10.08s-4.823-10.08-10.086-10.08z"/><path d="M958.49 70.201h-10.524v2.191h10.524v-2.19zm24.557 29.363L969.015 70.2h10.962v2.191h-7.454l12.716 25.857-2.192 1.315z"/><path d="M979.1 79.843h-.877V77.65h.877c1.316 0 2.631-1.314 2.631-2.63 0-1.314-1.315-2.629-2.631-2.629h-.877v-2.19h.877c2.631 0 4.824 2.19 4.824 4.82 0 2.63-2.193 4.82-4.824 4.82zm4.385 27.609c-5.262 0-9.647-4.382-9.647-9.641 0-5.26 4.385-9.642 9.647-9.642 5.262 0 9.648 4.383 9.648 9.642 0 5.259-4.386 9.641-9.648 9.641zm0-17.091c-3.946 0-7.454 3.506-7.454 7.45 0 3.944 3.069 7.45 7.454 7.45s7.455-3.506 7.455-7.45c0-3.944-3.07-7.45-7.455-7.45zm-35.081 17.091c-5.262 0-9.647-4.382-9.647-9.641 0-5.26 4.385-9.642 9.647-9.642 5.263 0 9.648 4.383 9.648 9.642-.439 5.259-4.385 9.641-9.648 9.641zm0-17.091c-3.946 0-7.454 3.506-7.454 7.45 0 3.944 3.069 7.45 7.454 7.45s7.455-3.506 7.455-7.45c-.438-3.944-3.508-7.45-7.455-7.45zM290.636 199.046c-15.786 0-28.503-12.709-28.503-28.486 0-15.777 12.717-28.486 28.503-28.486 15.787 0 28.504 12.709 28.504 28.486 0 15.777-12.717 28.486-28.504 28.486zm0-54.781c-14.471 0-26.31 11.833-26.31 26.295 0 14.462 11.839 26.295 26.31 26.295 14.471 0 26.311-11.833 26.311-26.295 0-14.462-11.84-26.295-26.311-26.295z"/><path d="M290.636 199.046c-6.577 0-15.348-13.585-15.348-28.486 0-14.9 8.332-28.486 15.348-28.486 6.578 0 15.348 13.586 15.348 28.486 0 14.901-8.77 28.486-15.348 28.486zm0-54.781c-4.385 0-13.155 10.956-13.155 26.295 0 15.339 8.77 26.295 13.155 26.295s13.156-10.956 13.156-26.295c0-15.339-8.771-26.295-13.156-26.295z"/><path d="M291.952 142.074h-2.193v56.972h2.193v-56.972z"/><path d="M319.14 169.245h-57.007v2.192h57.007v-2.192zm-28.504-11.832c-15.348 0-19.733-5.698-19.733-6.136l-.438-.876 1.754-1.315.438.876s3.947 5.259 17.979 5.259c14.033 0 17.979-5.259 17.979-5.259l.439-.876 1.754 1.315-.439.876c0 .438-4.385 6.136-19.733 6.136zm18.418 34.621l-.439-.876s-3.946-5.259-17.979-5.259c-14.032 0-17.979 5.259-17.979 5.259l-.438.876-1.754-1.314.438-.877c0-.438 4.385-6.135 19.733-6.135s19.733 5.697 19.733 6.135l.439.877-1.754 1.314z"/><path d="M302.038 160.48c-2.631 0-4.824-2.191-4.824-4.82 0-2.63 2.193-4.821 4.824-4.821s4.823 2.191 4.823 4.821c0 2.629-2.192 4.82-4.823 4.82zm0-7.888c-1.316 0-2.631 1.315-2.631 2.629 0 1.315 1.315 2.63 2.631 2.63 1.315 0 2.631-1.315 2.631-2.63 0-1.314-1.316-2.629-2.631-2.629zm-22.803 37.689c-2.631 0-4.824-2.191-4.824-4.82 0-2.63 2.193-4.821 4.824-4.821s4.824 2.191 4.824 4.821c0 2.629-2.193 4.82-4.824 4.82zm0-7.45c-1.316 0-2.631 1.315-2.631 2.63 0 1.314 1.315 2.629 2.631 2.629 1.316 0 2.631-1.315 2.631-2.629 0-1.315-.877-2.63-2.631-2.63z"/><path d="M290.636 199.046c-15.786 0-28.503-12.709-28.503-28.486 0-15.777 12.717-28.486 28.503-28.486 15.787 0 28.504 12.709 28.504 28.486 0 15.777-12.717 28.486-28.504 28.486zm0-54.781c-14.471 0-26.31 11.833-26.31 26.295 0 14.462 11.839 26.295 26.31 26.295 14.471 0 26.311-11.833 26.311-26.295 0-14.462-11.84-26.295-26.311-26.295z"/><path d="M290.636 194.226c-13.155 0-23.679-10.518-23.679-23.666 0-13.147 10.524-23.665 23.679-23.665 13.156 0 23.68 10.518 23.68 23.665 0 13.148-10.524 23.666-23.68 23.666zm0-45.14c-11.84 0-21.487 9.641-21.487 21.474s9.647 21.474 21.487 21.474c11.84 0 21.487-9.641 21.487-21.474s-9.647-21.474-21.487-21.474z"/><path d="M302.038 160.48c-2.631 0-4.824-2.191-4.824-4.82 0-2.63 2.193-4.821 4.824-4.821s4.823 2.191 4.823 4.821c0 2.629-2.192 4.82-4.823 4.82zm0-7.888c-1.316 0-2.631 1.315-2.631 2.629 0 1.315 1.315 2.63 2.631 2.63 1.315 0 2.631-1.315 2.631-2.63 0-1.314-1.316-2.629-2.631-2.629zm-22.803 37.689c-2.631 0-4.824-2.191-4.824-4.82 0-2.63 2.193-4.821 4.824-4.821s4.824 2.191 4.824 4.821c0 2.629-2.193 4.82-4.824 4.82zm0-7.45c-1.316 0-2.631 1.315-2.631 2.63 0 1.314 1.315 2.629 2.631 2.629 1.316 0 2.631-1.315 2.631-2.629 0-1.315-.877-2.63-2.631-2.63zM991.817-262.43c-15.786 0-28.503-12.709-28.503-28.486 0-15.777 12.717-28.486 28.503-28.486 15.783 0 28.503 12.709 28.503 28.486 0 15.777-13.16 28.486-28.503 28.486zm0-54.781c-14.471 0-26.311 11.833-26.311 26.295 0 14.462 11.84 26.295 26.311 26.295 14.473 0 26.313-11.833 26.313-26.295 0-14.462-11.84-26.295-26.313-26.295z"/><path d="M991.817-262.43c-6.578 0-15.348-13.586-15.348-28.486 0-14.901 8.332-28.486 15.348-28.486s15.343 13.585 15.343 28.486c0 14.9-8.765 28.486-15.343 28.486zm0-54.781c-4.385 0-13.156 10.956-13.156 26.295 0 15.339 8.771 26.295 13.156 26.295s13.153-10.956 13.153-26.295c0-15.339-8.768-26.295-13.153-26.295z"/><path d="M992.694-319.402h-2.193v56.972h2.193v-56.972z"/><path d="M1020.32-292.231h-57.006v2.191h57.006v-2.191zm-28.503-11.833c-15.348 0-19.733-5.697-19.733-6.135l-.439-.877 1.754-1.314.439.876s3.947 5.259 17.979 5.259c14.033 0 17.983-5.259 17.983-5.259l.43-.876 1.76 1.314-.44.877c-.44.438-4.39 6.135-19.733 6.135zm18.413 34.184l-.43-.877s-3.95-5.259-17.983-5.259c-14.032 0-17.979 5.259-17.979 5.259l-.439.877-1.754-1.315.439-.876c0-.439 4.385-6.136 19.733-6.136 15.343 0 19.733 5.697 19.733 6.136l.44.876-1.76 1.315z"/><path d="M1003.22-300.996c-2.63 0-4.825-2.191-4.825-4.821 0-2.629 2.195-4.82 4.825-4.82 2.63 0 4.82 2.191 4.82 4.82 0 2.63-2.19 4.821-4.82 4.821zm0-7.888c-1.32 0-2.63 1.314-2.63 2.629s1.31 2.63 2.63 2.63c1.31 0 2.63-1.315 2.63-2.63s-1.32-2.629-2.63-2.629zm-22.804 37.689c-2.631 0-4.824-2.191-4.824-4.821 0-2.629 2.193-4.82 4.824-4.82s4.823 2.191 4.823 4.82c0 2.63-2.192 4.821-4.823 4.821zm0-7.45c-1.316 0-2.632 1.315-2.632 2.629 0 1.315 1.316 2.63 2.632 2.63 1.315 0 2.631-1.315 2.631-2.63 0-1.314-1.316-2.629-2.631-2.629z"/><path d="M991.817-262.43c-15.786 0-28.503-12.709-28.503-28.486 0-15.777 12.717-28.486 28.503-28.486 15.783 0 28.503 12.709 28.503 28.486 0 15.777-13.16 28.486-28.503 28.486zm0-54.781c-14.471 0-26.311 11.833-26.311 26.295 0 14.462 11.84 26.295 26.311 26.295 14.473 0 26.313-11.833 26.313-26.295 0-14.462-11.84-26.295-26.313-26.295z"/><path d="M991.817-267.251c-13.156 0-23.68-10.518-23.68-23.665 0-13.148 10.524-23.666 23.68-23.666 13.153 0 23.683 10.518 23.683 23.666 0 13.147-10.53 23.665-23.683 23.665zm0-45.139c-11.84 0-21.487 9.641-21.487 21.474s9.647 21.474 21.487 21.474c11.843 0 21.483-9.641 21.483-21.474s-9.64-21.474-21.483-21.474z"/><path d="M1003.22-300.996c-2.63 0-4.825-2.191-4.825-4.821 0-2.629 2.195-4.82 4.825-4.82 2.63 0 4.82 2.191 4.82 4.82 0 2.63-2.19 4.821-4.82 4.821zm0-7.888c-1.32 0-2.63 1.314-2.63 2.629s1.31 2.63 2.63 2.63c1.31 0 2.63-1.315 2.63-2.63s-1.32-2.629-2.63-2.629zm-22.804 37.689c-2.631 0-4.824-2.191-4.824-4.821 0-2.629 2.193-4.82 4.824-4.82s4.823 2.191 4.823 4.82c0 2.63-2.192 4.821-4.823 4.821zm0-7.45c-1.316 0-2.632 1.315-2.632 2.629 0 1.315 1.316 2.63 2.632 2.63 1.315 0 2.631-1.315 2.631-2.63 0-1.314-1.316-2.629-2.631-2.629zM609.873 268.728c-15.786 0-28.503-12.709-28.503-28.486 0-15.777 12.717-28.486 28.503-28.486s28.503 12.709 28.503 28.486c0 15.777-12.717 28.486-28.503 28.486zm0-54.343c-14.471 0-26.311 11.833-26.311 26.295 0 14.462 11.84 26.295 26.311 26.295s26.311-11.833 26.311-26.295c0-14.462-11.84-26.295-26.311-26.295z"/><path d="M609.873 268.728c-6.578 0-15.348-13.586-15.348-28.486 0-14.901 8.332-28.486 15.348-28.486 6.578 0 15.348 13.585 15.348 28.486 0 14.9-8.332 28.486-15.348 28.486zm0-54.343c-4.385 0-13.155 10.956-13.155 26.295 0 15.339 8.77 26.295 13.155 26.295s13.155-10.956 13.155-26.295c0-15.339-8.331-26.295-13.155-26.295z"/><path d="M611.189 212.194h-2.193v56.972h2.193v-56.972z"/><path d="M638.376 239.365H581.37v2.192h57.006v-2.192zm-28.503-11.832c-15.348 0-19.733-5.697-19.733-6.136l-.438-.876 1.754-1.315.438.877s3.947 5.258 17.979 5.258c14.033 0 17.979-5.258 17.979-5.258l.439-.877 1.754 1.315-.439.876s-3.946 6.136-19.733 6.136zm18.856 34.183l-.438-.876s-3.947-5.259-17.979-5.259c-14.033 0-17.979 5.259-17.979 5.259l-.439.876-1.754-1.315.439-.876c0-.438 4.385-6.136 19.733-6.136s19.733 5.698 19.733 6.136l.438.876-1.754 1.315z"/><path d="M621.274 230.162c-2.631 0-4.823-2.191-4.823-4.821 0-2.629 2.192-4.82 4.823-4.82 2.631 0 4.824 2.191 4.824 4.82 0 2.63-2.193 4.821-4.824 4.821zm0-7.45c-1.315 0-2.631 1.315-2.631 2.629 0 1.315 1.316 2.63 2.631 2.63 1.316 0 2.631-1.315 2.631-2.63 0-1.314-1.315-2.629-2.631-2.629zm-22.802 37.689c-2.631 0-4.824-2.191-4.824-4.82 0-2.63 2.193-4.821 4.824-4.821s4.823 2.191 4.823 4.821c0 2.629-1.754 4.82-4.823 4.82zm0-7.45c-1.316 0-2.631 1.315-2.631 2.63 0 1.314 1.315 2.629 2.631 2.629 1.315 0 2.631-1.315 2.631-2.629 0-1.315-.877-2.63-2.631-2.63z"/><path d="M609.873 268.728c-15.786 0-28.503-12.709-28.503-28.486 0-15.777 12.717-28.486 28.503-28.486s28.503 12.709 28.503 28.486c0 15.777-12.717 28.486-28.503 28.486zm0-54.343c-14.471 0-26.311 11.833-26.311 26.295 0 14.462 11.84 26.295 26.311 26.295s26.311-11.833 26.311-26.295c0-14.462-11.84-26.295-26.311-26.295z"/><path d="M609.873 264.346c-13.155 0-23.68-10.518-23.68-23.666 0-13.147 10.525-23.665 23.68-23.665s23.68 10.518 23.68 23.665c0 13.148-10.525 23.666-23.68 23.666zm0-45.578c-11.84 0-21.487 9.641-21.487 21.474s9.647 21.474 21.487 21.474c11.84 0 21.487-9.641 21.487-21.474s-9.647-21.474-21.487-21.474z"/><path d="M621.274 230.162c-2.631 0-4.823-2.191-4.823-4.821 0-2.629 2.192-4.82 4.823-4.82 2.631 0 4.824 2.191 4.824 4.82 0 2.63-2.193 4.821-4.824 4.821zm0-7.45c-1.315 0-2.631 1.315-2.631 2.629 0 1.315 1.316 2.63 2.631 2.63 1.316 0 2.631-1.315 2.631-2.63 0-1.314-1.315-2.629-2.631-2.629zm-22.802 37.689c-2.631 0-4.824-2.191-4.824-4.82 0-2.63 2.193-4.821 4.824-4.821s4.823 2.191 4.823 4.821c0 2.629-1.754 4.82-4.823 4.82zm0-7.45c-1.316 0-2.631 1.315-2.631 2.63 0 1.314 1.315 2.629 2.631 2.629 1.315 0 2.631-1.315 2.631-2.629 0-1.315-.877-2.63-2.631-2.63zM437.099 25.5h-2.192v-2.192c0-3.067 2.631-5.697 5.701-5.697h5.7c2.193 0 3.508-1.753 3.508-3.506s-1.315-3.506-3.508-3.506h-2.192V8.408h2.192c3.07 0 5.701 2.63 5.701 5.697 0 3.068-2.631 5.697-5.701 5.697h-5.7c-2.193 0-3.509 1.753-3.509 3.506V25.5zm18.856 24.98h-22.802l-3.947-21.474 2.193-.438 3.508 19.72h19.294l3.947-19.72 2.193.438-4.386 21.474z"/><path d="M460.779 31.197h-32.45a3.93 3.93 0 0 1-3.947-3.944 3.93 3.93 0 0 1 3.947-3.944h32.45a3.93 3.93 0 0 1 3.947 3.944 3.93 3.93 0 0 1-3.947 3.944zm-32.45-5.697c-.877 0-1.754.876-1.754 1.753 0 .876.877 1.753 1.754 1.753h32.45c.877 0 1.754-.877 1.754-1.753 0-.877-.877-1.753-1.754-1.753h-32.45zm17.102-24.104V-.795h.877c2.193 0 3.947-1.753 3.947-3.506v-.877h2.192v.877c0 3.068-2.631 5.697-6.139 5.697h-.877zm1.316 9.204h-5.701c-3.07 0-5.701-2.63-5.701-5.698 0-3.068 2.631-5.697 5.701-5.697h2.193v2.191h-2.193c-2.193 0-3.508 1.753-3.508 3.506s1.754 3.506 3.508 3.506h5.701V10.6z"/><path d="M446.747 25.5h-2.193V-6.492c0-.439-.438-.877-.877-.877-.438 0-.877.438-.877.877V25.5h-2.193V-6.492c0-1.753 1.316-3.068 3.07-3.068 1.754 0 3.07 1.315 3.07 3.068V25.5zm3.508-10.08v-1.315c0-.876.877-6.573 3.069-9.203 2.631-2.191 8.332-3.068 9.209-3.068h1.316V3.15c0 .877-.877 6.574-3.07 9.203-2.631 2.191-8.332 3.068-9.209 3.068h-1.315zm10.963-11.394c-2.193.438-5.263.876-6.578 2.19-1.316 1.316-2.193 4.383-2.193 6.136 2.193-.438 5.262-.876 6.578-2.19 1.316-.877 2.193-3.945 2.193-6.136zm-24.996 2.191h-1.315s-4.824-.438-7.455-3.068c-2.631-2.63-3.07-7.012-3.07-7.45v-1.315h1.316s4.824.438 7.455 3.068c2.631 2.63 3.069 7.012 3.069 7.45v1.315zm-9.208-9.203c.438 1.314.877 3.506 2.192 4.382 1.316 1.315 3.07 1.753 4.824 2.191-.439-1.314-.877-3.506-2.193-4.382-1.315-1.315-3.508-2.191-4.823-2.191zm16.663 36.813h-13.594v2.19h13.594v-2.19zm-3.508 3.943h-8.77v2.192h8.77v-2.191zm5.262-12.27h-3.946v2.191h3.946V25.5zm3.947 0h-3.947v2.191h3.947V25.5z"/><path d="M441.923 25.5h-3.947v2.191h3.947V25.5zm8.332-10.08v-1.315c0-.876.877-6.573 3.069-9.203 2.631-2.191 8.332-3.068 9.209-3.068h1.316V3.15c0 .877-.877 6.574-3.07 9.203-2.631 2.191-8.332 3.068-9.209 3.068h-1.315zm10.963-11.394c-2.193.438-5.263.876-6.578 2.19-1.316 1.316-2.193 4.383-2.193 6.136 2.193-.438 5.262-.876 6.578-2.19 1.316-.877 2.193-3.945 2.193-6.136zm-24.996 2.191h-1.315s-4.824-.438-7.455-3.068c-2.631-2.63-3.07-7.012-3.07-7.45v-1.315h1.316s4.824.438 7.455 3.068c2.631 2.63 3.069 7.012 3.069 7.45v1.315zm-9.208-9.203c.438 1.314.877 3.506 2.192 4.382 1.316 1.315 3.07 1.753 4.824 2.191-.439-1.314-.877-3.506-2.193-4.382-1.315-1.315-3.508-2.191-4.823-2.191zm28.941 53.466h-22.802l-3.947-21.474 2.193-.438 3.508 19.72h19.294l3.947-19.72 2.193.438-4.386 21.474zM144.612-283.028c-13.156 0-29.381-14.9-29.819-15.338l-.877-.877.877-.876c.877-.439 16.663-15.339 29.819-15.339 13.155 0 28.942 14.9 29.819 15.339l.877.876-.877.877c-.877.438-16.664 15.338-29.819 15.338zm-27.627-16.215c3.509 3.068 16.664 14.024 27.627 14.024 10.963 0 24.118-10.956 27.626-14.024-3.508-3.068-16.663-14.024-27.626-14.024-10.963 0-24.118 10.956-27.627 14.024z"/><path d="M175.746-306.693h-.877c-2.192 0-4.824-1.753-7.893-3.944-5.262-3.506-12.278-8.327-22.364-8.327-10.525 0-18.418 5.259-23.68 8.765-3.069 1.753-4.824 3.068-6.578 3.068h-.877v-1.753h.877c.877 0 3.07-1.315 5.263-3.068 5.7-3.506 13.593-9.203 24.995-9.203 10.524 0 17.979 5.259 23.241 8.765 2.631 1.753 5.262 3.506 6.578 3.506h.877v2.191h.438z"/><path d="M144.612-283.028c-8.771 0-16.225-7.45-16.225-16.215s7.016-16.215 16.225-16.215c8.77 0 16.225 7.45 16.225 16.215s-7.455 16.215-16.225 16.215zm0-30.239c-7.894 0-14.033 6.136-14.033 14.024 0 7.889 6.139 14.024 14.033 14.024 7.893 0 14.032-6.135 14.032-14.024 0-7.888-6.578-14.024-14.032-14.024z"/><path d="M144.612-288.725c-5.701 0-10.524-4.821-10.524-10.518 0-1.753.877-3.944.877-4.382l1.315-3.068h-1.315l1.315-.438.439-1.315v1.315l3.069-1.315c.439 0 2.631-.877 3.947-.877 5.7 0 10.524 4.821 10.524 10.518 0 5.698-3.947 10.08-9.647 10.08zm-8.332-10.518c0 4.821 3.508 8.327 8.332 8.327 4.385 0 8.332-3.944 8.332-8.327 0-4.382-3.509-8.327-8.332-8.327 1.315.877 2.192 2.63 2.192 4.383 0 3.068-2.631 5.697-5.7 5.697-2.193.438-3.947-.438-4.824-1.753zm.877-7.45v3.506c0 2.191 1.754 3.506 3.508 3.506 2.193 0 3.508-1.753 3.508-3.506s-1.315-3.506-3.508-3.506h-3.508z"/><path d="M144.612-288.725c-5.701 0-10.524-4.821-10.524-10.518 0-1.753.877-3.944.877-4.382l1.315-3.068h-1.315l1.315-.438.439-1.315v1.315l3.069-1.315c.439 0 2.631-.877 3.947-.877 5.7 0 10.524 4.821 10.524 10.518 0 5.698-3.947 10.08-9.647 10.08zm-8.332-10.518c0 4.821 3.508 8.327 8.332 8.327 4.385 0 8.332-3.944 8.332-8.327 0-4.382-3.509-8.327-8.332-8.327 1.315.877 2.192 2.63 2.192 4.383 0 3.068-2.631 5.697-5.7 5.697-2.193.438-3.947-.438-4.824-1.753zm.877-7.45v3.506c0 2.191 1.754 3.506 3.508 3.506 2.193 0 3.508-1.753 3.508-3.506s-1.315-3.506-3.508-3.506h-3.508zm667.415 189.324c-18.856 0-41.22-21.036-42.097-21.913l-.877-.876.877-.877c.877-.876 23.68-21.912 42.097-21.912 18.856 0 41.22 21.036 42.097 21.912l.877.877-.877.876c-.877 1.315-23.679 21.913-42.097 21.913zm-39.904-22.351c4.385 3.944 24.118 20.159 39.904 20.159 15.787 0 35.52-16.653 39.905-20.159-4.385-3.944-24.118-20.16-39.905-20.16-15.786 0-35.519 16.216-39.904 20.16z"/><path d="M848.424-150.676h-.877c-3.07 0-6.578-2.192-10.963-5.259-7.455-5.259-17.541-11.833-32.012-11.833-14.909 0-26.31 7.888-33.765 12.709-3.947 2.63-6.578 4.383-8.77 4.383h-.877v-2.192h.877c1.315 0 4.385-1.753 7.454-4.382 7.894-5.259 19.733-13.148 35.081-13.148 14.91 0 25.434 7.012 32.889 12.271 3.946 2.63 7.455 4.821 9.647 4.821h.877v2.63h.439z"/><path d="M804.572-117.369c-12.278 0-22.364-10.08-22.364-22.351 0-12.271 10.086-22.351 22.364-22.351 12.279 0 22.364 10.08 22.364 22.351 0 12.271-10.085 22.351-22.364 22.351zm0-42.949c-11.401 0-20.171 9.203-20.171 20.16 0 10.956 9.208 20.159 20.171 20.159s20.172-9.203 20.172-20.159c0-10.957-9.209-20.16-20.172-20.16z"/><path d="M804.572-125.258c-7.893 0-14.471-6.574-14.471-14.462 0-2.191 1.316-5.697 1.316-5.697 0-.439.877-.877 1.315-.877.439 0 .877.438.877.877 0 3.067 2.632 5.697 5.701 5.697 3.07 0 5.701-2.63 5.701-5.697 0-3.068-2.631-5.698-5.701-5.698-.438 0-.877-.438-.877-.876s0-.877.877-1.315c0 0 3.508-1.315 5.701-1.315 7.893 0 14.471 6.574 14.471 14.463 0 7.888-7.017 14.9-14.91 14.9zm-12.278-16.215v1.315c0 6.573 5.701 12.271 12.278 12.271 6.578 0 12.279-5.698 12.279-12.271 0-6.574-5.701-12.271-12.279-12.271h-1.315c2.192 1.314 3.946 3.944 3.946 6.573a7.858 7.858 0 0 1-7.893 7.889c-3.069.438-5.7-.877-7.016-3.506z"/><path d="M804.572-125.258c-7.893 0-14.471-6.574-14.471-14.462 0-2.191 1.316-5.697 1.316-5.697 0-.439.877-.877 1.315-.877.439 0 .877.438.877.877 0 3.067 2.632 5.697 5.701 5.697 3.07 0 5.701-2.63 5.701-5.697 0-3.068-2.631-5.698-5.701-5.698-.438 0-.877-.438-.877-.876s0-.877.877-1.315c0 0 3.508-1.315 5.701-1.315 7.893 0 14.471 6.574 14.471 14.463 0 7.888-7.017 14.9-14.91 14.9zm-12.278-16.215v1.315c0 6.573 5.701 12.271 12.278 12.271 6.578 0 12.279-5.698 12.279-12.271 0-6.574-5.701-12.271-12.279-12.271h-1.315c2.192 1.314 3.946 3.944 3.946 6.573a7.858 7.858 0 0 1-7.893 7.889c-3.069.438-5.7-.877-7.016-3.506zm-347.74-109.562c-18.856 0-41.22-21.036-42.097-21.913l-.877-.438.877-.877c.877-.876 23.68-21.912 42.097-21.912 18.856 0 41.22 21.036 42.097 21.912l.877.877-.877.876c-.877.877-23.241 21.475-42.097 21.475zm-39.905-22.351c4.386 3.944 24.119 20.159 39.905 20.159 15.786 0 35.52-16.653 39.905-20.159-4.385-3.944-24.119-20.16-39.905-20.16-15.786 0-35.519 16.216-39.905 20.16z"/><path d="M488.405-284.342h-.877c-3.069 0-6.577-2.192-10.963-5.259-7.454-5.259-17.54-11.833-32.011-11.833-14.909 0-26.311 7.888-33.765 12.709-3.947 2.63-6.578 4.383-8.771 4.383h-.877v-2.192h.877c1.316 0 4.386-1.753 7.455-4.382 7.893-5.259 19.733-13.148 35.081-13.148 14.91 0 25.434 7.012 32.889 12.271 3.946 2.63 7.454 4.821 9.647 4.821h.877v2.63h.438z"/><path d="M444.554-251.035c-12.278 0-22.364-10.08-22.364-22.351 0-12.271 10.086-22.789 22.364-22.789s22.364 10.08 22.364 22.351c0 12.271-10.086 22.789-22.364 22.789zm0-42.949c-11.401 0-20.172 9.203-20.172 20.16 0 11.394 9.209 20.159 20.172 20.159 10.963 0 20.172-9.203 20.172-20.159 0-10.957-8.771-20.16-20.172-20.16z"/><path d="M444.554-258.924c-7.893 0-14.471-6.574-14.471-14.462 0-2.191 1.316-5.697 1.316-5.697 0-.439.877-.877 1.315-.877.439 0 .877.438.877.877 0 3.067 2.631 5.697 5.701 5.697 3.069 0 5.701-2.63 5.701-5.697 0-3.068-2.632-5.698-5.701-5.698-.439 0-.877-.438-.877-.876s0-.877.877-1.315c0 0 3.508-1.315 5.701-1.315 7.893 0 14.47 6.574 14.47 14.463 0 7.888-7.016 14.9-14.909 14.9zm-11.84-15.777v1.315c0 6.574 5.701 12.271 12.279 12.271 6.577 0 12.278-5.697 12.278-12.271 0-6.574-5.701-12.271-12.278-12.271h-1.316c2.193 1.315 3.947 3.944 3.947 6.574a7.859 7.859 0 0 1-7.894 7.888c-3.508 0-5.7-1.315-7.016-3.506z"/><path d="M444.554-258.924c-7.893 0-14.471-6.574-14.471-14.462 0-2.191 1.316-5.697 1.316-5.697 0-.439.877-.877 1.315-.877.439 0 .877.438.877.877 0 3.067 2.631 5.697 5.701 5.697 3.069 0 5.701-2.63 5.701-5.697 0-3.068-2.632-5.698-5.701-5.698-.439 0-.877-.438-.877-.876s0-.877.877-1.315c0 0 3.508-1.315 5.701-1.315 7.893 0 14.47 6.574 14.47 14.463 0 7.888-7.016 14.9-14.909 14.9zm-11.84-15.777v1.315c0 6.574 5.701 12.271 12.279 12.271 6.577 0 12.278-5.697 12.278-12.271 0-6.574-5.701-12.271-12.278-12.271h-1.316c2.193 1.315 3.947 3.944 3.947 6.574a7.859 7.859 0 0 1-7.894 7.888c-3.508 0-5.7-1.315-7.016-3.506zm-132.43 3.506h-12.717v-3.068s0-1.314-1.754-3.067l-6.578-6.574c-2.193-2.191-2.193-4.383-2.193-4.383v-14.9a3.929 3.929 0 0 1 3.947-3.944 3.929 3.929 0 0 1 3.947 3.944v8.765h-1.754v-8.765c0-.877-.877-1.753-1.755-1.753-.877 0-1.754.876-1.754 1.753v14.9s0 1.315 1.754 3.068l6.578 6.574c2.193 2.191 2.193 4.382 2.193 4.382v.877h8.331v-6.574s0-2.191-1.754-3.944l-9.208-8.765h-.439c-.877 0-1.754.876-1.754 1.753v.438l7.016 7.012-1.754 1.753-7.454-7.888v-1.315a3.929 3.929 0 0 1 3.946-3.944h1.316l9.647 9.641c2.193 2.191 2.193 5.259 2.193 5.259v8.765z"/><path d="M302.038-265.498h-16.225v-7.888h16.225v7.888zm-14.033-2.191h11.84v-3.506h-11.84v3.506zm39.466-3.506h-12.717v-8.765s0-3.506 2.193-5.259l9.647-9.641h1.316a3.929 3.929 0 0 1 3.946 3.944v1.315l-7.454 7.45-1.754-1.753 7.016-7.012v-.438c0-.877-.877-1.753-1.754-1.753h-.439l-9.209 9.203c-1.315 1.315-1.754 3.944-1.754 3.944v6.574h8.332v-.877s0-2.191 2.193-4.382l6.577-6.574c1.316-1.315 1.754-3.068 1.754-3.068v-14.9c.439-.877-.438-1.753-1.315-1.753s-1.754.876-1.754 1.753v8.765h-2.193v-8.765a3.929 3.929 0 0 1 3.947-3.944 3.929 3.929 0 0 1 3.946 3.944v14.9s0 2.192-2.192 4.383l-6.578 6.574c-1.315 1.314-1.754 3.067-1.754 3.067v3.068z"/><path d="M329.225-265.498H313v-7.888h16.225v7.888zm-14.032-2.191h11.84v-3.506h-11.84v3.506zm-7.016-46.016h-2.193v39.442h2.193v-39.442z"/><path d="M307.738-297.052l-.877-.876c-.438-.438-7.893-7.45-7.893-14.024 0-6.574 7.455-13.586 7.893-14.024l.877-.877.877.877c.439.438 7.893 7.45 7.893 14.024 0 6.574-7.454 13.586-7.893 14.024l-.877.876zm0-25.856c-1.754 1.753-6.578 7.012-6.578 11.394 0 4.383 4.386 9.642 6.578 11.395 1.754-1.753 6.139-7.012 6.139-11.395 0-4.382-4.385-9.641-6.139-11.394zm-.877 36.813c-1.754 0-6.578-.439-9.209-3.068-3.508-3.506-4.823-10.518-4.823-10.956l-.439-1.315h1.316c.438 0 5.7-.438 9.209 3.068 3.508 3.506 5.7 10.518 5.7 10.518l.439 1.314h-1.316c0 .439-.438.439-.877.439zm-11.84-13.148c.439 2.191 1.754 6.136 3.947 8.327s5.262 2.629 7.016 2.629c-.877-2.191-2.631-6.135-4.823-8.326-1.755-2.192-4.386-2.63-6.14-2.63z"/><path d="M308.615-286.095h-2.192l.438-1.315c0-.438 2.631-7.45 5.701-10.518 3.508-3.506 9.209-3.068 9.209-3.068h1.315l-.438.877c0 .438-1.316 7.45-4.824 10.956-2.631 2.629-7.455 3.068-9.209 3.068zm5.262-10.518c-2.192 2.191-3.946 6.135-4.823 8.326 1.754 0 5.262-.438 7.016-2.629 2.193-2.191 3.508-6.136 3.947-8.327-1.316 0-3.947.438-6.14 2.63z"/><path d="M307.738-273.824c-11.401 0-20.61-9.204-20.61-20.598 0-11.395 9.209-20.598 20.61-20.598 11.402 0 20.61 9.203 20.61 20.598 0 11.394-9.208 20.598-20.61 20.598zm0-39.443c-10.085 0-18.417 8.327-18.417 18.407 0 10.079 8.332 18.406 18.417 18.406 10.086 0 18.418-8.327 18.418-18.406 0-10.08-8.332-18.407-18.418-18.407zm-5.7 47.769h-16.225v-7.888h16.225v7.888zm-14.033-2.191h11.84v-3.506h-11.84v3.506z"/><path d="M338.873-264.621h-62.269v-62.232h62.269v62.232zm-60.077-2.191h57.884v-57.849h-57.884v57.849zM96.814 111.835c-4.824 0-8.77-3.944-8.77-8.765 0-4.82 3.946-8.765 8.77-8.765h6.578v-117.89h-6.578c-4.824 0-8.77-3.943-8.77-8.764 0-4.82 3.946-8.765 8.77-8.765s8.77 3.944 8.77 8.765v6.574h31.573c4.824 0 8.77 3.944 8.77 8.765v8.765h-2.192v-8.765c0-3.506-3.07-6.574-6.578-6.574h-31.573V94.305h46.044c3.508 0 6.578-3.068 6.578-6.574v-14.9c0-4.821 3.946-8.765 8.77-8.765s8.77 3.944 8.77 8.765v14.9c0 3.506 3.07 6.574 6.578 6.574 3.508 0 6.578-3.068 6.578-6.574v-14.9c0-4.821 3.946-8.765 8.77-8.765 4.823 0 8.77 3.944 8.77 8.765v14.9c0 3.506 3.07 6.574 6.578 6.574h46.043c7.894 0 14.033-6.136 14.033-14.024V48.727h2.192v31.992c0 8.765-7.016 16.215-16.225 16.215h-47.359c-4.823 0-8.77-3.944-8.77-8.765v-14.9c0-3.506-3.07-6.574-6.578-6.574-3.508 0-6.577 3.068-6.577 6.574v14.9c0 4.821-3.947 8.765-8.771 8.765-4.823 0-8.77-3.944-8.77-8.765v-14.9c0-3.506-3.07-6.574-6.578-6.574-3.508 0-5.262 2.63-5.262 6.136v14.9c0 4.82-3.946 8.765-8.77 8.765h-46.482v6.574c0 4.821-3.508 8.765-8.332 8.765zm0-15.339c-3.508 0-6.578 3.068-6.578 6.574s3.07 6.574 6.578 6.574c3.508 0 6.578-3.068 6.578-6.574v-6.574h-6.578zm0-134.98c-3.508 0-6.578 3.067-6.578 6.573 0 3.506 3.07 6.574 6.578 6.574h6.578v-6.574c-.439-3.944-3.07-6.574-6.578-6.574zm115.329 300.638c-4.824 0-8.771-3.944-8.771-8.765v-14.9c0-3.506-3.069-6.574-6.577-6.574s-6.578 3.068-6.578 6.574v14.9c0 4.821-3.947 8.765-8.77 8.765-4.824 0-8.77-3.944-8.77-8.765v-14.9c0-3.506-3.07-6.574-6.578-6.574-3.508 0-6.578 3.068-6.578 6.574v14.9c0 4.821-3.946 8.765-8.77 8.765s-8.77-3.944-8.77-8.765v-14.462h2.192v14.462c0 3.506 3.07 6.574 6.578 6.574 3.508 0 6.578-3.068 6.578-6.574v-14.9c0-4.821 3.946-8.765 8.77-8.765 4.823 0 8.77 3.944 8.77 8.765v14.9c0 3.506 3.07 6.574 6.578 6.574 3.508 0 6.577-3.068 6.577-6.574v-14.9c0-4.821 3.947-8.765 8.771-8.765 4.823 0 8.77 3.944 8.77 8.765v14.9c0 3.506 3.07 6.574 6.578 6.574 3.508 0 6.577-3.068 6.577-6.574v-67.49c0-8.765 7.016-16.215 11.84-16.215h138.57v-6.574c0-4.821 3.947-8.765 8.77-8.765 4.824 0 8.77 3.944 8.77 8.765 0 2.629-1.315 8.765-13.155 8.765h-2.193v57.849h67.093c7.893 0 14.032-6.136 14.032-14.024v-16.215h2.193V215.7c0 8.765-7.016 16.215-16.225 16.215h-67.093v6.574c0 4.821-3.946 8.765-8.77 8.765-4.823 0-8.77-3.944-8.77-8.765 0-4.821 3.947-8.765 8.77-8.765h6.578v-57.849H230.56c-3.069 0-9.647 6.135-9.647 14.024v67.49c0 4.821-3.947 8.765-8.77 8.765zm150.409-30.239c-3.508 0-6.577 3.068-6.577 6.574s3.069 6.573 6.577 6.573 6.578-3.067 6.578-6.573v-6.574h-6.578zm8.77-62.231h2.193c7.016 0 10.963-2.192 10.963-6.574 0-3.506-3.07-6.574-6.578-6.574-3.508 0-6.578 3.068-6.578 6.574v6.574z"/><path d="M145.489 49.603h-2.193v105.18h2.193V49.603zm231.534 63.108c-4.824 0-8.77-3.944-8.77-8.765v-6.573h-60.076c-8.77 0-15.787-7.013-15.787-16.216V47.412h2.193v33.745c0 7.889 5.701 14.024 13.594 14.024h60.076V-52.947h-59.638v6.574c0 4.82-3.946 8.765-8.77 8.765s-8.77-3.944-8.77-8.765c0-4.82 3.946-8.765 8.77-8.765h6.578V-275.14h2.192v220h59.638v-6.573c0-4.82 3.946-8.765 8.77-8.765s8.77 3.944 8.77 8.765c0 4.82-3.946 8.765-8.77 8.765h-6.578V95.181h6.578c4.824 0 8.77 3.945 8.77 8.765 0 4.821-3.946 8.765-8.77 8.765zm-6.578-14.9v6.573c0 3.507 3.07 6.574 6.578 6.574 3.508 0 6.578-3.067 6.578-6.574 0-3.505-3.07-6.573-6.578-6.573h-6.578zm-70.6-150.758c-3.508 0-6.578 3.068-6.578 6.574s3.07 6.574 6.578 6.574c3.508 0 6.578-3.068 6.578-6.574v-6.574h-6.578zm70.6-2.191h6.578c3.508 0 6.578-3.068 6.578-6.574s-3.07-6.574-6.578-6.574c-3.508 0-6.578 3.068-6.578 6.574v6.574zm156.988 317.292c-4.824 0-8.77-3.944-8.77-8.765v-6.135h-70.601c-8.77 0-16.225-7.012-16.225-16.215V188.09h2.193v42.949c0 7.888 6.139 14.024 14.032 14.024h71.039V103.508c0-3.506-3.069-6.574-6.578-6.574-3.508 0-6.577 3.068-6.577 6.574v14.901c0 4.82-3.947 8.765-8.77 8.765-4.824 0-8.771-3.945-8.771-8.765v-60.04c0-4.821 3.947-8.766 8.771-8.766 4.823 0 8.77 3.945 8.77 8.765V73.27c0 3.506 3.069 6.574 6.577 6.574 3.509 0 6.578-3.068 6.578-6.574V-39.36c0-7.45-6.139-14.024-14.032-14.024h-38.151c-7.893 0-14.032 6.136-14.032 14.024V-4.3h-2.193v-35.06c0-8.765 7.455-16.215 16.225-16.215h38.151c8.77 0 16.225 7.45 16.225 16.215V73.27c0 4.82-3.947 8.765-8.771 8.765-4.823 0-8.77-3.944-8.77-8.765v-14.9c0-3.507-3.069-6.574-6.577-6.574-3.509 0-6.578 3.067-6.578 6.573v60.041c0 3.506 3.069 6.573 6.578 6.573 3.508 0 6.577-3.067 6.577-6.573v-14.901c0-4.82 3.947-8.765 8.77-8.765 4.824 0 8.771 3.944 8.771 8.765v141.555h6.577c4.824 0 8.771 3.944 8.771 8.765-.439 4.382-4.386 8.326-9.209 8.326zm-6.578-14.9v6.574c0 3.506 3.07 6.573 6.578 6.573 3.508 0 6.578-3.067 6.578-6.573 0-3.506-3.07-6.574-6.578-6.574h-6.578zM944.896-57.767h-2.192v-1.753c0-3.068 2.631-5.698 5.7-5.698h5.701c2.193 0 3.508-1.753 3.508-3.506s-1.754-3.506-3.508-3.506h-2.192v-2.19h2.192c3.07 0 5.701 2.629 5.701 5.696 0 3.068-2.631 5.698-5.701 5.698h-5.701c-2.192 0-3.508 1.753-3.508 3.506v1.753zm18.856 25.417H940.95l-3.947-21.473 2.193-.438 3.508 19.72h19.294l3.947-19.72 2.192.438-4.385 21.474z"/><path d="M968.576-52.07h-32.45a3.929 3.929 0 0 1-3.947-3.944 3.93 3.93 0 0 1 3.947-3.945h32.45a3.93 3.93 0 0 1 3.947 3.945 3.929 3.929 0 0 1-3.947 3.944zm-32.45-5.697c-.877 0-1.754.876-1.754 1.753 0 .876.877 1.753 1.754 1.753h32.45c.877 0 1.754-.877 1.754-1.753 0-.877-.877-1.753-1.754-1.753h-32.45zm17.102-24.104v-2.191h.877c2.193 0 3.946-1.754 3.946-3.507v-.876h2.193v.876c0 3.068-2.631 5.698-6.139 5.698h-.877zm1.316 9.203h-5.701c-3.07 0-5.701-2.63-5.701-5.697 0-3.068 2.631-5.698 5.701-5.698h2.192v2.192h-2.192c-2.193 0-3.508 1.753-3.508 3.506s1.754 3.506 3.508 3.506h5.701v2.191z"/><path d="M954.544-57.767h-2.193V-89.76c0-.876-1.754-.876-1.754 0v31.993h-2.193V-89.76c0-1.753 1.316-3.067 3.07-3.067 1.754 0 3.07 1.314 3.07 3.067v31.993zm3.508-10.08v-1.315c0-.876.877-6.574 3.069-9.203 2.631-2.192 8.332-3.068 9.209-3.068h1.315v1.315c0 .876-.877 6.573-3.069 9.203-2.631 2.191-8.332 3.068-9.209 3.068h-1.315zm10.962-10.957c-2.192.439-5.262.877-6.577 2.192-1.316 1.314-2.193 4.382-2.193 6.135 2.193-.438 5.262-.876 6.578-2.191 1.315-.876 2.192-3.944 2.192-6.135zm-24.995 1.754h-1.315s-4.824-.439-7.455-3.068c-2.631-2.63-3.07-7.012-3.07-7.45v-1.315h1.316s4.824.438 7.455 3.068c2.631 2.63 3.069 7.012 3.069 7.45v1.315zm-9.208-9.204c.438 1.315.877 3.506 2.192 4.383 1.316 1.315 3.07 1.753 4.824 2.191-.439-1.315-.877-3.506-2.193-4.382-1.316-1.315-3.508-1.753-4.823-2.192zm16.663 36.814H937.88v2.19h13.594v-2.19zm-3.508 4.382h-8.771v2.191h8.771v-2.191zm5.262-12.709h-3.947v2.19h3.947v-2.19z"/><path d="M957.174-57.767h-3.946v2.19h3.946v-2.19zm-7.454 0h-3.947v2.19h3.947v-2.19zm8.332-10.08v-1.315c0-.876.877-6.574 3.069-9.203 2.631-2.192 8.332-3.068 9.209-3.068h1.315v1.315c0 .876-.877 6.573-3.069 9.203-2.631 2.191-8.332 3.068-9.209 3.068h-1.315zm10.962-10.957c-2.192.439-5.262.877-6.577 2.192-1.316 1.314-2.193 4.382-2.193 6.135 2.193-.438 5.262-.876 6.578-2.191 1.315-.876 2.192-3.944 2.192-6.135zm-24.995 1.754h-1.315s-4.824-.439-7.455-3.068c-2.631-2.63-3.07-7.012-3.07-7.45v-1.315h1.316s4.824.438 7.455 3.068c2.631 2.63 3.069 7.012 3.069 7.45v1.315zm-9.208-9.204c.438 1.315.877 3.506 2.192 4.383 1.316 1.315 3.07 1.753 4.824 2.191-.439-1.315-.877-3.506-2.193-4.382-1.316-1.315-3.508-1.753-4.823-2.192zm28.941 53.904H940.95l-3.947-21.473 2.193-.438 3.508 19.72h19.294l3.947-19.72 2.192.438-4.385 21.474z"/><path d="M1035.23 178.887c-4.82 0-8.77-3.944-8.77-8.765v-6.135h-46.483c-8.77 0-16.225-7.012-16.225-16.216V96.934h2.193v50.837c0 7.889 6.139 14.024 14.032 14.024h46.483V20.241c0-3.506-3.07-6.574-6.58-6.574-3.51 0-6.58 3.068-6.58 6.574v14.9c0 4.821-3.94 8.765-8.77 8.765-4.82 0-8.766-3.944-8.766-8.765v-60.04c0-4.82 3.946-8.765 8.766-8.765 4.83 0 8.77 3.944 8.77 8.765v14.9c0 3.507 3.07 6.574 6.58 6.574 3.51 0 6.58-3.067 6.58-6.573v-173.985c0-7.45-6.14-14.024-14.03-14.024h-38.153c-7.455 0-14.033 6.135-14.033 14.024v96.415h-1.754v-96.415c0-8.765 7.455-16.215 16.225-16.215h38.155c8.77 0 16.22 7.45 16.22 16.215V-9.998c0 4.82-3.95 8.765-8.77 8.765-4.82 0-8.77-3.945-8.77-8.765v-14.9c0-3.507-3.07-6.575-6.58-6.575-3.51 0-6.575 3.068-6.575 6.574v60.04c0 3.506 3.065 6.574 6.575 6.574 3.51 0 6.58-3.068 6.58-6.574v-14.9c0-4.821 3.95-8.765 8.77-8.765 4.82 0 8.77 3.944 8.77 8.765v141.554h6.58c4.82 0 8.77 3.945 8.77 8.765-.44 4.383-4.39 8.327-9.21 8.327zm-6.58-14.9v6.573c0 3.506 3.07 6.574 6.58 6.574 3.51 0 6.58-3.068 6.58-6.574s-3.07-6.573-6.58-6.573h-6.58zM204.25-53.385h-30.258c-8.77 0-16.225-7.012-16.225-16.215v-30.678h2.631V-69.6c0 7.888 6.139 14.024 14.033 14.024h29.819c7.893 0 14.032-6.136 14.032-14.024v-91.156c0-7.012 5.701-12.271 12.278-12.271h186.806v2.191H230.56c-5.7 0-10.086 4.383-10.086 10.08V-69.6c0 8.765-7.016 16.215-16.224 16.215zm-81.125 0H76.642c-4.823 0-8.77-3.944-8.77-8.765v-120.08c0-4.821 3.947-8.765 8.77-8.765 4.824 0 8.77 3.944 8.77 8.765v15.338c0 3.506 3.07 6.574 6.578 6.574 3.509 0 6.578-3.068 6.578-6.574v-60.478c0-3.506-3.07-6.574-6.578-6.574-3.508 0-6.577 3.068-6.577 6.574v15.339c0 4.82-3.947 8.765-8.77 8.765-4.824 0-8.77-3.945-8.77-8.765v-85.897h-6.14c-4.824 0-8.77-3.944-8.77-8.765 0-4.821 3.946-8.765 8.77-8.765s8.77 3.944 8.77 8.765v6.574h46.483v2.191H70.065v85.458c0 3.506 3.07 6.574 6.577 6.574 3.508 0 6.578-3.068 6.578-6.574v-15.338c0-4.821 3.947-8.765 8.77-8.765 4.824 0 8.771 3.944 8.771 8.765v60.478c0 4.821-3.947 8.765-8.77 8.765-4.824 0-8.77-3.944-8.77-8.765v-14.9c0-3.506-3.07-6.574-6.579-6.574-3.508 0-6.577 3.068-6.577 6.574v120.518c0 3.506 3.07 6.574 6.577 6.574h46.483c7.893 0 14.032-6.136 14.032-14.024V-99.84h2.193v30.677c0 8.327-7.017 15.777-16.225 15.777zM61.733-313.267c-3.508 0-6.578 3.068-6.578 6.574s3.07 6.574 6.578 6.574h6.14v-6.574c0-3.506-2.632-6.574-6.14-6.574zm620.056 462.353h-97.35c-4.823 0-8.77-3.944-8.77-8.765V19.802c0-4.82 3.947-8.764 8.77-8.764 4.824 0 8.771 3.944 8.771 8.764v15.34c0 3.505 3.069 6.573 6.577 6.573s6.578-3.068 6.578-6.574v-60.478c0-3.506-3.07-6.574-6.578-6.574-3.508 0-6.577 3.068-6.577 6.574v15.339c0 4.82-3.947 8.765-8.771 8.765-4.823 0-8.77-3.945-8.77-8.765v-128.407h-6.139c-4.824 0-8.77-3.945-8.77-8.765 0-4.821 3.946-8.765 8.77-8.765s8.77 3.944 8.77 8.765v6.573h186.368v2.192H578.3v127.968c0 3.506 3.07 6.574 6.578 6.574 3.508 0 6.578-3.068 6.578-6.574v-15.338c0-4.821 3.946-8.765 8.77-8.765 4.823 0 8.77 3.944 8.77 8.765v60.478c0 4.82-3.947 8.765-8.77 8.765-4.824 0-8.77-3.944-8.77-8.765V19.364c0-3.506-3.07-6.574-6.578-6.574-3.508 0-6.578 3.068-6.578 6.574v120.519c0 3.506 3.07 6.574 6.578 6.574h97.35c7.893 0 14.032-6.136 14.032-14.024V78.966h2.192v53.467c-.438 9.203-7.454 16.653-16.663 16.653zM569.53-153.306c-3.508 0-6.578 3.068-6.578 6.574s3.07 6.574 6.578 6.574h6.139v-6.574c0-3.506-2.631-6.574-6.139-6.574zm313.975 14.462h-37.274v-2.191h37.274c3.508 0 6.577-3.068 6.577-6.574v-67.49c0-3.506-3.069-6.574-6.577-6.574-3.509 0-6.578 3.068-6.578 6.574v15.339c0 4.82-3.947 8.765-8.77 8.765-4.824 0-8.771-3.945-8.771-8.765v-60.479c0-4.82 3.947-8.765 8.771-8.765 4.823 0 8.77 3.945 8.77 8.765v15.339c0 3.506 3.069 6.574 6.578 6.574 3.508 0 6.577-3.068 6.577-6.574v-.876h2.193v.876c0 4.821-3.947 8.765-8.77 8.765-4.824 0-8.771-3.944-8.771-8.765v-15.339c0-3.506-3.069-6.573-6.577-6.573-3.509 0-6.578 3.067-6.578 6.573v60.479c0 3.506 3.069 6.573 6.578 6.573 3.508 0 6.577-3.067 6.577-6.573v-15.339c0-4.821 3.947-8.765 8.771-8.765 4.823 0 8.77 3.944 8.77 8.765v67.929c0 4.382-3.947 8.326-8.77 8.326z"/><path d="M890.082-244.023v-46.017h-6.139c-4.824 0-8.77-3.944-8.77-8.765 0-4.82 3.946-8.764 8.77-8.764s8.77 3.944 8.77 8.764v6.574h73.232v2.191h-73.232v46.017h-2.631zm-6.577-60.917c-3.509 0-6.578 3.068-6.578 6.574s3.069 6.573 6.578 6.573h6.139v-7.012c.438-3.506-2.631-6.135-6.139-6.135zm-41.659 572.353h-97.788c-8.332 0-15.348-6.574-16.225-14.9l-92.965.438v-2.191l92.965-.439v-6.573c0-4.821 3.946-8.765 8.77-8.765s8.77 3.944 8.77 8.765c0 4.82-3.946 8.765-8.77 8.765h-6.578c.439 7.012 6.578 12.709 14.033 12.709h97.788c7.893 0 14.032-6.136 14.032-14.024v-120.08c0-7.889-6.139-14.024-14.032-14.024H805.45v20.159h-2.193v-20.159h-6.578c-4.823 0-8.77-3.944-8.77-8.765 0-4.821 3.947-8.765 8.77-8.765 4.824 0 8.771 3.944 8.771 8.765v6.574h36.396c8.77 0 16.225 7.012 16.225 16.215v120.08c0 8.765-7.455 16.215-16.225 16.215zm-105.243-30.239c-3.508 0-6.578 3.068-6.578 6.574v6.573h6.578c3.508 0 6.578-3.067 6.578-6.573-.439-3.506-3.07-6.574-6.578-6.574zm60.515-134.981c-3.508 0-6.578 3.068-6.578 6.574s3.07 6.574 6.578 6.574h6.577v-6.574c-.438-3.506-3.069-6.574-6.577-6.574zM983.485 213.07c-2.192 0-4.385-1.753-4.385-4.382 0-2.63 1.754-4.383 4.385-4.383s4.385 1.753 4.385 4.383c0 2.629-1.754 4.382-4.385 4.382zm0-6.135c-1.315 0-2.192.876-2.192 2.191s.877 2.192 2.192 2.192c1.316 0 2.193-.877 2.193-2.192 0-1.315-.877-2.191-2.193-2.191z"/><path d="M984.801 204.744h-2.193v51.275h2.193v-51.275z"/><path d="M1005.41 261.716h-43.412v-1.315c0-3.505 3.07-6.573 6.578-6.573h29.819c3.505 0 6.575 3.068 6.575 6.573v1.315h.44zm-41.219-2.191h38.589c-.44-1.753-2.19-3.506-4.385-3.506h-29.819c-2.193 0-3.947 1.315-4.385 3.506zm2.631-19.283c-5.262 0-9.648-4.383-9.648-9.642v-.876h18.857v.876c.438 5.259-3.947 9.642-9.209 9.642zm-7.455-8.765c.438 3.506 3.508 6.135 7.455 6.135 3.946 0 6.577-2.629 7.454-6.135h-14.909z"/><path d="M958.929 231.915l-2.193-.876 9.647-23.228 1.754.877-9.208 23.227z"/><path d="M974.715 231.915l-9.209-23.227 1.754-.877 9.209 23.228-1.754.876zm25.875 8.327c-5.265 0-9.65-4.383-9.65-9.642v-.876h18.86v.876c0 5.259-3.95 9.642-9.21 9.642zm-7.458-8.765c.439 3.506 3.509 6.135 7.458 6.135 3.94 0 6.57-2.629 7.45-6.135h-14.908z"/><path d="M992.694 231.915l-2.193-.876 9.209-23.228 2.19.877-9.206 23.227z"/><path d="M1008.04 231.915l-9.207-23.227 2.197-.877 9.2 23.228-2.19.876zm-23.239-17.53h-2.193v6.136h2.193v-6.136zm20.609 47.331h-43.412v-1.315c0-3.505 3.07-6.573 6.578-6.573h29.819c3.505 0 6.575 3.068 6.575 6.573v1.315h.44zm-41.219-2.191h38.589c-.44-1.753-2.19-3.506-4.385-3.506h-29.819c-2.193 0-3.947 1.315-4.385 3.506zm2.631-19.283c-5.262 0-9.648-4.383-9.648-9.642v-.876h18.857v.876c.438 5.259-3.947 9.642-9.209 9.642zm-7.455-8.765c.438 3.506 3.508 6.135 7.455 6.135 3.946 0 6.577-2.629 7.454-6.135h-14.909z"/><path d="M1000.59 240.242c-5.265 0-9.65-4.383-9.65-9.642v-.876h18.86v.876c0 5.259-3.95 9.642-9.21 9.642zm-7.458-8.765c.439 3.506 3.509 6.135 7.458 6.135 3.94 0 6.57-2.629 7.45-6.135h-14.908zm-9.647-18.407c-2.192 0-4.385-1.753-4.385-4.382 0-2.63 1.754-4.383 4.385-4.383s4.385 1.753 4.385 4.383c0 2.629-1.754 4.382-4.385 4.382zm0-6.135c-1.315 0-2.192.876-2.192 2.191s.877 2.192 2.192 2.192c1.316 0 2.193-.877 2.193-2.192 0-1.315-.877-2.191-2.193-2.191z"/><path d="M1001.9 207.811h-43.41v2.192h43.41v-2.192zm-856.411 35.937h-2.193v-17.53h-42.974v-2.191h42.974v-6.574c0-4.821 3.947-8.765 8.77-8.765 4.824 0 8.771 3.944 8.771 8.765 0 4.821-3.947 8.765-8.771 8.765h-6.577v17.53zm0-19.721h6.577c3.509 0 6.578-3.068 6.578-6.574s-3.069-6.574-6.578-6.574c-3.508 0-6.577 3.068-6.577 6.574v6.574zm6.577-56.096c-4.823 0-8.77-3.945-8.77-8.765v-6.574H63.048v-1.753h80.248v-17.53h2.193v17.53h6.577c4.824 0 8.771 3.944 8.771 8.765 0 4.821-3.947 8.327-8.771 8.327zm-6.577-14.901v6.574c0 3.506 3.069 6.574 6.577 6.574 3.509 0 6.578-3.068 6.578-6.574s-3.069-6.574-6.578-6.574h-6.577z"/><path d="M59.102 233.668h-2.193V153.03H50.77c-4.823 0-8.77-3.944-8.77-8.765 0-4.821 3.947-8.765 8.77-8.765 4.824 0 8.77 3.944 8.77 8.765v6.574h7.894v2.191h-8.332v80.638zM50.77 138.13c-3.508 0-6.577 3.067-6.577 6.573 0 3.506 3.07 6.136 6.577 6.136h6.578v-6.574c-.439-3.506-3.07-6.135-6.578-6.135z"/><path d="M50.77 263.907c-4.823 0-8.77-3.944-8.77-8.765 0-4.82 3.947-8.765 8.77-8.765h6.578v-15.338h2.193v15.338h20.171V215.7c0-4.383-1.754-8.327-3.508-12.709-2.193-4.821-3.947-9.642-3.947-15.339 0-11.394 9.21-20.598 20.61-20.598 11.402 0 20.61 9.204 20.61 20.598l6.14 15.339h-6.14v7.45c0 3.506-3.069 6.574-6.577 6.574h-4.385v7.45h-2.193v-9.642h6.578c2.631 0 4.385-2.191 4.385-4.382v-9.642h5.262l-5.262-13.147c0-10.08-8.332-18.406-18.418-18.406-10.085 0-18.417 8.326-18.417 18.406 0 5.259 1.754 10.08 3.947 14.9 1.753 4.383 3.508 8.765 3.508 13.586v32.869H59.102v6.574c0 4.382-3.947 8.326-8.332 8.326zm0-14.9c-3.508 0-6.577 3.068-6.577 6.574s3.07 6.573 6.577 6.573c3.508 0 6.578-3.067 6.578-6.573v-6.574H50.77zM805.888-7.807h-2.193v-31.116c0-4.82 3.947-8.765 8.771-8.765 4.823 0 8.77 3.944 8.77 8.765v15.339c0 3.506 3.069 6.573 6.578 6.573 3.508 0 6.577-3.067 6.577-6.573v-82.391c0-3.506-3.069-6.574-6.577-6.574-3.509 0-6.578 3.068-6.578 6.574v37.251c0 4.82-3.947 8.765-8.77 8.765-4.824 0-8.771-3.944-8.771-8.765v-50.837h2.193v50.837c0 3.506 3.07 6.574 6.578 6.574 3.508 0 6.577-3.068 6.577-6.574v-37.251c0-4.821 3.947-8.765 8.771-8.765 4.823 0 8.77 3.944 8.77 8.765v82.39c0 4.822-3.947 8.766-8.77 8.766-4.824 0-8.771-3.944-8.771-8.765v-15.339c0-3.506-3.069-6.574-6.577-6.574s-6.578 3.068-6.578 6.574v31.116zM438.853-132.708h-2.192v-38.128h-20.61v-2.191h20.61v-6.574c0-4.821 3.946-8.765 8.77-8.765s8.77 3.944 8.77 8.765c0 4.821-3.946 8.765-8.77 8.765h-6.578v38.128zm0-40.319h6.578c3.508 0 6.578-3.068 6.578-6.574s-3.07-6.574-6.578-6.574c-3.508 0-6.578 3.068-6.578 6.574v6.574zm462.192 397.93c-4.824 0-8.77-3.944-8.77-8.765 0-4.821 3.946-8.765 8.77-8.765h6.578V66.695h-89.457c-10.086 0-16.225-6.135-16.225-16.215v-.877h2.193v.877c0 8.765 5.262 14.024 14.032 14.024h89.457V57.93c0-4.82 3.946-8.765 8.77-8.765 4.823 0 8.77 3.944 8.77 8.765 0 4.82-3.947 8.765-8.77 8.765h-6.578v140.678h50.868v2.191h-50.868v6.574c0 5.259-3.946 8.765-8.77 8.765zm0-14.9c-3.508 0-6.578 3.067-6.578 6.573 0 3.506 3.07 6.574 6.578 6.574 3.508 0 6.578-3.068 6.578-6.574v-6.573h-6.578zm8.77-145.06h6.578c3.508 0 6.578-3.069 6.578-6.575 0-3.506-3.07-6.573-6.578-6.573-3.508 0-6.578 3.067-6.578 6.573v6.574zM570.407-279.083h-2.193v-2.192c0-3.067 2.632-5.697 5.701-5.697h5.701c2.192 0 3.508-1.753 3.508-3.506s-1.754-3.506-3.508-3.506h-2.193v-2.191h2.193c3.069 0 5.7 2.629 5.7 5.697s-2.631 5.697-5.7 5.697h-5.701c-2.192 0-3.508 1.753-3.508 3.506v2.192zm18.856 24.98H566.46l-3.946-21.474 2.192-.439 3.947 19.722h18.856l3.946-19.722 2.193.439-4.385 21.474z"/><path d="M594.087-273.386h-32.45a3.929 3.929 0 0 1-3.947-3.944 3.93 3.93 0 0 1 3.947-3.945h32.45a3.929 3.929 0 0 1 3.946 3.945 3.929 3.929 0 0 1-3.946 3.944zm-32.012-5.697c-.877 0-1.754.876-1.754 1.753 0 .876.877 1.753 1.754 1.753h32.45c.877 0 1.754-.877 1.754-1.753 0-.877-.877-1.753-1.754-1.753h-32.45zm16.664-24.104v-2.191h.877c2.192 0 3.946-1.753 3.946-3.506v-1.315h2.193v.877c0 3.067-2.631 5.697-6.139 5.697l-.877.438zm1.315 9.203h-5.7c-3.07 0-5.701-2.629-5.701-5.697s2.631-5.697 5.701-5.697h2.192v2.191h-2.192c-2.193 0-3.509 1.753-3.509 3.506s1.754 3.506 3.509 3.506h5.7v2.191z"/><path d="M580.054-279.083h-2.192v-31.992c0-.439-.439-.877-.877-.877-.439 0-.877.438-.877.877v31.992h-2.193v-31.992c0-1.753 1.316-3.068 3.07-3.068 1.754 0 3.069 1.315 3.069 3.068v31.992zm3.508-10.08v-1.315c0-.876.877-6.574 3.07-9.203 2.631-2.191 8.332-3.068 9.209-3.068h1.315v1.315c0 .876-.877 6.574-3.069 9.203-2.631 2.191-8.332 3.068-9.209 3.068h-1.316zm11.402-11.395c-2.193.439-5.263.877-6.578 2.192-1.316 1.314-2.193 4.382-2.193 6.135 2.193-.438 5.263-.876 6.578-2.191.877-.877 1.754-3.944 2.193-6.136zm-24.996 1.753h-1.315s-4.824-.438-7.455-3.067c-2.631-2.63-3.07-7.012-3.07-7.451v-1.314h1.316s4.824.438 7.455 3.067c2.631 2.63 3.069 7.012 3.069 7.451v1.314zm-9.647-9.203c.439 1.315.877 3.506 2.193 4.383 1.315 1.314 3.069 1.753 4.823 2.191-.438-1.315-.877-3.506-2.192-4.383-1.316-.876-3.508-1.753-4.824-2.191zm17.102 37.251h-13.594v2.192h13.594v-2.192zm-3.947 3.945h-8.77v2.191h8.77v-2.191zm5.263-12.271h-3.947v2.191h3.947v-2.191z"/><path d="M582.685-279.083h-3.946v2.191h3.946v-2.191zm-7.455 0h-3.946v2.191h3.946v-2.191zm8.332-10.08v-1.315c0-.876.877-6.574 3.07-9.203 2.631-2.191 8.332-3.068 9.209-3.068h1.315v1.315c0 .876-.877 6.574-3.069 9.203-2.631 2.191-8.332 3.068-9.209 3.068h-1.316zm11.402-11.395c-2.193.439-5.263.877-6.578 2.192-1.316 1.314-2.193 4.382-2.193 6.135 2.193-.438 5.263-.876 6.578-2.191.877-.877 1.754-3.944 2.193-6.136zm-24.996 1.753h-1.315s-4.824-.438-7.455-3.067c-2.631-2.63-3.07-7.012-3.07-7.451v-1.314h1.316s4.824.438 7.455 3.067c2.631 2.63 3.069 7.012 3.069 7.451v1.314zm-9.647-9.203c.439 1.315.877 3.506 2.193 4.383 1.315 1.314 3.069 1.753 4.823 2.191-.438-1.315-.877-3.506-2.192-4.383-1.316-.876-3.07-1.753-4.824-2.191zm28.942 53.905H566.46l-3.946-21.474 2.192-.439 3.947 19.722h18.856l3.946-19.722 2.193.439-4.385 21.474z"/><path d="M658.109-201.513h-2.192v-121.395h-56.13c-3.508 0-7.016 1.314-9.647 3.944-2.631 2.629-3.947 6.135-3.947 9.641h-2.192v-1.753c.438-3.506 2.192-6.573 4.823-9.203 3.07-3.068 7.017-4.821 11.402-4.821h55.691v-6.135c0-4.821 3.946-8.765 8.77-8.765s8.77 3.944 8.77 8.765c0 4.821-3.946 8.327-8.77 8.327h-6.578v121.395zm0-123.587h6.578c3.508 0 6.578-2.629 6.578-6.135s-3.07-6.574-6.578-6.574c-3.508 0-6.578 3.068-6.578 6.574v6.135z"/><path d="M649.778-190.119c-4.824 0-8.771-3.944-8.771-8.765 0-4.821 3.947-8.327 8.771-8.327h6.577v-121.395h2.193v121.395h92.087c3.947 0 7.016-1.314 10.086-3.944 2.631-2.629 3.947-6.135 3.947-9.641h2.192v2.191c-.438 3.506-2.192 6.574-4.823 9.203-3.07 3.068-7.017 4.821-11.402 4.821h-92.087v6.135c-.439 4.383-3.947 8.327-8.77 8.327zm0-14.9c-3.509 0-6.578 2.629-6.578 6.135s3.069 6.574 6.578 6.574c3.508 0 6.577-3.068 6.577-6.574v-6.135h-6.577z"/></g><defs><clipPath id="clip0"><path fill="#fff" d="M0 0h1048v309H0z"/></clipPath></defs></svg>