<svg xmlns="http://www.w3.org/2000/svg" width="97" height="780" fill="none"><path fill="#fff" d="M22.997 776.187V675.382h-.023V428.334h13.784v7.626c0 7.016 5.146 12.71 11.487 12.71 6.352 0 11.487-5.694 11.487-12.71 0-7.016-5.135-12.71-11.487-12.71h-6.892V250.391c0-4.194 3.067-7.601 6.857-7.626l9.316-.051c6.306-.038 11.395-5.707 11.395-12.685 0-6.965-5.1-12.621-11.406-12.621H20.653c-3.802 0-6.88-3.406-6.892-7.639-.011-4.194 3.044-7.6 6.858-7.613h64.384c6.352 0 11.487-5.694 11.487-12.71 0-7.029-5.135-12.711-11.487-12.711H48.245c-3.802 0-6.892-3.419-6.892-7.626V6.876l5.755 6.343 3.239-3.61-7.708-8.503C41.996.394 41.123 0 40.204 0c-1.895 0-3.446 1.703-3.446 3.813V169.11c0 7.016 5.146 12.711 11.487 12.711h36.758c3.813 0 6.892 3.406 6.892 7.626 0 4.207-3.079 7.626-6.892 7.626H20.584c-6.329.012-11.44 5.707-11.418 12.748.023 7.003 5.158 12.672 11.487 12.672h36.862c3.767 0 6.811 3.368 6.811 7.537 0 4.182-3.044 7.576-6.823 7.601l-9.316.051c-6.317.038-11.43 5.719-11.43 12.71V423.25H22.975v-7.626c0-7.016-5.135-12.71-11.487-12.71-6.341 0-11.487 5.694-11.487 12.71 0 7.016 5.146 12.71 11.487 12.71h6.892v247.175h.023v97.615l-5.755-6.343-3.24 3.61 7.708 8.503c.644.712 1.517 1.106 2.436 1.106 1.895 0 3.446-1.703 3.446-3.813zM11.36 423.428c-3.813 0-6.892-3.419-6.892-7.626 0-4.207 3.079-7.626 6.892-7.626 3.803 0 6.893 3.419 6.893 7.626v7.626H11.36zm29.993 4.753h6.892c3.813 0 6.892 3.42 6.892 7.627s-3.079 7.626-6.892 7.626c-3.802 0-6.892-3.419-6.892-7.626v-7.627z"/></svg>